<svg xmlns="http://www.w3.org/2000/svg" version="1.1" xlink="http://www.w3.org/1999/xlink" xmlns:svgjs="http://svgjs.com/svgjs" width="100%" height="100%" preserveAspectRatio="xMidYMid meet" viewBox="1.174540642523425e-7 -9.195398575911895e-8 300.0002136230469 102.26729583740234" overflow="visible"><defs id="SvgjsDefs38605"></defs><g id="SvgjsG38606" transform="scale(0.6507592190889372)" opacity="1"><g id="SvgjsG38607" class="DlYRuD5Gv" transform="translate(-1.1192605394819273, -1.4861865255508941) scale(1.6012311008325184)" light-content="false" non-strokable="false" fill="#1c1c1c"><path d="M47 1.732l37.301 21.536a6 6 0 0 1 3 5.196v43.072a6 6 0 0 1-3 5.196L47 98.268a6 6 0 0 1-6 0L3.699 76.732a6 6 0 0 1-3-5.196V28.464a6 6 0 0 1 3-5.196L41 1.732a6 6 0 0 1 6 0z"></path></g><g id="SvgjsG38608" class="9_CKXixRZ7" transform="translate(10.670802760457498, 19.906205244892377) scale(1.1733166014018857)" light-content="true" non-strokable="false" fill="#ffffff"><path d="M49 74.348v14.836c0 .55.45 1 1 1s1-.45 1-1V74.348c8.496-.422 16.215-6.106 18.195-13.574 1.063-4.012.59-8.129-.031-12.344-1.86-12.559-4.383-25.559-12.82-34.359-1.59-1.66-2.992-2.84-4.414-3.71a3.723 3.723 0 0 0-3.86 0c-1.422.87-2.824 2.05-4.414 3.71-8.437 8.8-10.96 21.801-12.82 34.359-.625 4.215-1.098 8.332-.031 12.344 1.98 7.469 9.7 13.152 18.195 13.574zM32.816 48.719c1.813-12.238 4.254-24.891 12.285-33.27 1.469-1.531 2.742-2.61 4.016-3.39a1.694 1.694 0 0 1 1.766 0c1.269.78 2.546 1.859 4.015 3.39 8.027 8.379 10.473 21.027 12.285 33.27.594 4 1.043 7.894.078 11.539-1.988 7.5-9.656 11.703-16.262 12.09V51.457l5.355-5.356a1 1 0 1 0-1.414-1.414L51 48.63V37.817c0-.551-.45-1-1-1s-1 .449-1 1v21.535l-6.543-6.543a1 1 0 1 0-1.414 1.414L49 62.18v10.172c-6.606-.39-14.273-4.594-16.262-12.09-.969-3.648-.516-7.54.078-11.543z"></path></g><g id="SvgjsG38609" class="text" transform="translate(317.62039527727416, 103.45806539825935) scale(1)" light-content="false" fill="#1c1c1c"><path d="M-124.58 -6.93C-124.06 -7.08 -123.59 -7.39 -123.15 -7.85C-122.72 -8.31 -122.55 -8.98 -122.65 -9.85C-123.06 -13.9 -123.51 -17.95 -124 -22.01C-124.49 -26.06 -125.12 -30.03 -125.88 -33.93C-126.14 -35.01 -126.58 -35.73 -127.19 -36.09C-127.81 -36.45 -128.32 -36.65 -128.73 -36.7C-128.01 -37.68 -127.3 -38.6 -126.58 -39.47C-125.86 -40.35 -125.12 -41.22 -124.35 -42.09C-123.73 -42.81 -123.47 -43.5 -123.58 -44.17C-123.68 -44.83 -124.01 -45.35 -124.58 -45.71C-124.94 -45.91 -125.28 -46.01 -125.62 -46.01C-125.95 -46.01 -126.24 -45.95 -126.5 -45.82C-126.76 -45.69 -127 -45.55 -127.23 -45.4C-127.46 -45.24 -127.63 -45.12 -127.73 -45.01C-129.37 -43.37 -130.91 -41.59 -132.35 -39.67C-133.78 -37.74 -135.09 -35.79 -136.27 -33.82C-137.45 -31.84 -138.48 -29.96 -139.35 -28.16C-140.22 -26.37 -140.89 -24.78 -141.35 -23.39C-141.56 -22.88 -141.51 -22.39 -141.2 -21.93C-140.89 -21.47 -140.22 -21.13 -139.2 -20.93C-138.02 -20.72 -137.2 -21.06 -136.73 -21.93C-135.86 -24.24 -134.9 -26.41 -133.85 -28.43C-132.8 -30.46 -131.68 -32.37 -130.5 -34.16L-130.5 -33.39C-130.5 -33.14 -130.48 -32.91 -130.42 -32.7C-129.81 -28.7 -129.24 -24.76 -128.73 -20.89C-128.22 -17.02 -127.68 -12.98 -127.12 -8.77C-127.06 -8.21 -126.85 -7.69 -126.46 -7.23C-126.08 -6.77 -125.45 -6.67 -124.58 -6.93ZM-101.26 -16.39C-99.88 -16.59 -99.18 -17.49 -99.18 -19.08C-99.18 -22.47 -99.33 -26.03 -99.61 -29.78C-99.89 -33.52 -100.42 -37.17 -101.18 -40.7C-101.24 -41.01 -101.39 -41.35 -101.65 -41.71C-101.9 -42.06 -102.2 -42.37 -102.53 -42.63C-102.86 -42.88 -103.25 -43.05 -103.69 -43.13C-104.12 -43.21 -104.54 -43.14 -104.96 -42.94C-105.57 -42.63 -105.83 -41.99 -105.72 -41.01L-105.34 -36.78C-106.31 -36.32 -107.46 -35.77 -108.76 -35.13C-110.07 -34.49 -111.37 -33.81 -112.65 -33.09C-113.93 -32.37 -115.14 -31.66 -116.27 -30.97C-117.4 -30.28 -118.24 -29.62 -118.81 -29.01C-119.16 -28.6 -119.56 -28.03 -120 -27.32C-120.43 -26.6 -120.52 -25.96 -120.27 -25.39C-120.01 -24.98 -119.58 -24.78 -118.96 -24.78C-118.34 -24.78 -117.7 -24.98 -117.04 -25.39C-116.27 -25.85 -115.37 -26.37 -114.34 -26.93C-113.32 -27.5 -112.25 -28.06 -111.15 -28.62C-110.05 -29.19 -108.96 -29.73 -107.88 -30.24C-106.8 -30.75 -105.8 -31.19 -104.88 -31.55L-103.65 -18.78C-103.65 -18.52 -103.58 -18.25 -103.45 -17.97C-103.33 -17.68 -103.15 -17.42 -102.92 -17.16C-102.69 -16.9 -102.43 -16.7 -102.15 -16.54C-101.86 -16.39 -101.57 -16.34 -101.26 -16.39Z M-55.17 -20.08C-55.99 -19.98 -57.33 -19.74 -59.17 -19.35C-61.02 -18.97 -62.97 -18.49 -65.02 -17.93C-64.92 -19.83 -64.84 -21.72 -64.79 -23.62C-64.74 -25.52 -64.71 -27.47 -64.71 -29.47C-62.97 -30.65 -61.69 -32.22 -60.86 -34.16C-60.66 -34.63 -60.51 -35.24 -60.4 -36.01C-60.3 -36.78 -60.3 -37.56 -60.4 -38.36C-60.51 -39.15 -60.75 -39.9 -61.13 -40.59C-61.52 -41.28 -62.1 -41.78 -62.87 -42.09C-63.43 -42.3 -64.03 -42.35 -64.67 -42.24C-65.31 -42.14 -65.89 -42.01 -66.41 -41.86C-66.3 -42.63 -66.48 -43.3 -66.94 -43.86C-67.25 -44.27 -67.67 -44.51 -68.21 -44.59C-68.75 -44.67 -69.43 -44.37 -70.25 -43.71C-71.43 -42.73 -72.6 -41.59 -73.75 -40.28C-74.91 -38.97 -75.69 -37.42 -76.1 -35.63C-76.31 -34.7 -76.32 -33.78 -76.14 -32.86C-75.96 -31.93 -75.61 -31.1 -75.1 -30.36C-74.59 -29.61 -73.91 -29 -73.06 -28.51C-72.21 -28.02 -71.2 -27.78 -70.02 -27.78L-69.25 -27.78C-69.35 -25.83 -69.44 -23.93 -69.52 -22.08C-69.6 -20.24 -69.71 -18.39 -69.87 -16.54C-70.59 -16.29 -71.28 -16.06 -71.95 -15.85C-72.61 -15.65 -73.18 -15.44 -73.64 -15.24C-75.28 -14.52 -76.36 -13.8 -76.87 -13.08C-77.38 -12.36 -77.56 -11.8 -77.41 -11.39C-77.2 -10.67 -76.63 -10.25 -75.68 -10.12C-74.73 -9.99 -73.79 -10.11 -72.87 -10.46C-71.59 -10.93 -70.16 -11.39 -68.6 -11.85L-63.9 -13.23C-62.34 -13.7 -60.83 -14.15 -59.36 -14.58C-57.9 -15.02 -56.61 -15.39 -55.48 -15.7C-54.35 -16 -53.43 -16.45 -52.71 -17.04C-51.99 -17.63 -51.58 -18.31 -51.48 -19.08C-51.48 -19.39 -51.59 -19.63 -51.82 -19.81C-52.05 -19.99 -52.36 -20.11 -52.75 -20.16C-53.13 -20.21 -53.54 -20.22 -53.98 -20.2C-54.41 -20.17 -54.81 -20.13 -55.17 -20.08ZM-43.09 -13.93C-43.24 -17.57 -43.24 -21.47 -43.09 -25.62C-40.68 -25.93 -38.32 -26.41 -36.01 -27.05C-33.7 -27.69 -31.73 -28.29 -30.09 -28.86C-29.47 -29.06 -29.06 -29.32 -28.86 -29.62C-28.65 -29.93 -28.57 -30.21 -28.62 -30.47C-28.67 -30.73 -28.88 -31.01 -29.24 -31.32C-29.6 -31.63 -30.09 -31.8 -30.7 -31.86C-33.01 -32.01 -35.2 -31.93 -37.28 -31.63C-39.36 -31.32 -41.24 -30.88 -42.94 -30.32C-42.83 -31.96 -42.73 -33.55 -42.63 -35.09C-42.53 -36.63 -42.4 -38.11 -42.24 -39.55C-42.19 -40.27 -42.38 -40.86 -42.82 -41.32C-43.26 -41.78 -43.73 -42.12 -44.24 -42.32C-44.81 -42.53 -45.45 -42.46 -46.17 -42.13C-46.89 -41.79 -47.27 -41.27 -47.32 -40.55C-47.48 -38.86 -47.6 -37.02 -47.71 -35.05C-47.81 -33.07 -47.89 -31.05 -47.94 -28.97C-47.99 -26.89 -48.01 -24.83 -48.01 -22.78C-48.01 -20.72 -47.96 -18.78 -47.86 -16.93C-47.86 -16.57 -47.8 -16.15 -47.67 -15.66C-47.54 -15.17 -47.36 -14.7 -47.13 -14.24C-46.9 -13.77 -46.6 -13.38 -46.24 -13.04C-45.89 -12.71 -45.48 -12.49 -45.01 -12.39C-44.55 -12.29 -44.12 -12.38 -43.71 -12.66C-43.3 -12.94 -43.09 -13.36 -43.09 -13.93ZM-67.79 -39.24L-67.64 -39.32C-66.82 -39.68 -66.02 -39.83 -65.25 -39.78C-64.53 -39.68 -64.22 -39.29 -64.33 -38.63C-64.43 -37.96 -64.69 -37.32 -65.1 -36.7C-65.66 -35.78 -66.44 -34.95 -67.44 -34.2C-68.44 -33.46 -69.51 -33.06 -70.64 -33.01C-70.89 -34.34 -70.7 -35.54 -70.06 -36.59C-69.42 -37.64 -68.66 -38.52 -67.79 -39.24Z M20.93 -27.7C21.44 -27.65 22.05 -27.52 22.74 -27.32C23.43 -27.11 24.05 -26.83 24.58 -26.47C25.12 -26.11 25.52 -25.66 25.78 -25.12C26.03 -24.58 26.01 -23.96 25.7 -23.24C25.5 -22.83 25.08 -22.2 24.47 -21.35C23.85 -20.51 23.14 -19.57 22.31 -18.54C21.49 -17.52 20.67 -16.47 19.85 -15.39C19.03 -14.31 18.31 -13.31 17.7 -12.39C19.65 -13.26 21.49 -13.89 23.24 -14.27C24.98 -14.66 26.26 -14.75 27.09 -14.54C28.01 -14.29 28.74 -13.77 29.28 -13C29.82 -12.23 29.91 -11.29 29.55 -10.16C29.34 -9.54 28.89 -8.63 28.2 -7.43C27.51 -6.22 26.74 -4.92 25.89 -3.54C25.05 -2.15 24.25 -0.81 23.51 0.5C22.76 1.81 22.26 2.87 22.01 3.69C23.03 3.44 24.11 3.1 25.24 2.69C26.37 2.28 27.44 1.85 28.47 1.39C29.5 0.92 30.47 0.45 31.39 -0.04C32.32 -0.53 33.09 -1 33.7 -1.46C34.47 -2.03 35.2 -2.28 35.9 -2.23C36.59 -2.18 37.06 -1.85 37.32 -1.23C37.58 -0.72 37.63 -0.22 37.47 0.27C37.32 0.76 37.08 1.21 36.74 1.62C36.41 2.03 36.04 2.39 35.63 2.69C35.22 3 34.86 3.23 34.55 3.39C32.65 4.57 30.36 5.77 27.66 7C24.97 8.23 22.21 9.11 19.39 9.62C18.88 9.72 18.33 9.67 17.74 9.46C17.15 9.26 16.62 8.95 16.16 8.54C15.7 8.13 15.38 7.62 15.2 7C15.02 6.39 15.06 5.72 15.31 5C16.13 2.9 17.35 0.55 18.97 -2.04C20.58 -4.63 22.34 -7.23 24.24 -9.85C23.62 -9.9 22.81 -9.76 21.81 -9.43C20.81 -9.09 19.79 -8.71 18.74 -8.27C17.68 -7.84 16.67 -7.41 15.7 -7C14.72 -6.59 13.95 -6.34 13.39 -6.23C12.93 -6.13 12.43 -6.25 11.89 -6.58C11.35 -6.91 10.9 -7.36 10.54 -7.93C10.23 -8.39 10.13 -8.8 10.23 -9.16C10.34 -9.52 10.52 -9.98 10.77 -10.54C11.18 -11.36 11.76 -12.32 12.5 -13.43C13.25 -14.53 14.06 -15.66 14.93 -16.81C15.8 -17.97 16.67 -19.1 17.54 -20.2C18.42 -21.3 19.21 -22.24 19.93 -23.01C19.06 -22.96 18.13 -22.83 17.16 -22.62C16.18 -22.42 15.24 -22.19 14.31 -21.93C13.39 -21.67 12.52 -21.4 11.7 -21.12C10.88 -20.84 10.23 -20.6 9.77 -20.39C9.11 -20.13 8.35 -19.97 7.5 -19.89C6.66 -19.81 6.13 -20.19 5.92 -21.01C5.82 -21.52 5.9 -22.12 6.16 -22.81C6.41 -23.51 6.8 -24.01 7.31 -24.32C8.39 -24.93 9.53 -25.46 10.73 -25.89C11.94 -26.33 13.16 -26.69 14.39 -26.97C15.62 -27.25 16.8 -27.46 17.93 -27.59C19.06 -27.71 20.06 -27.75 20.93 -27.7ZM-2.77 -41.63C-2 -41.12 -1.15 -40.5 -0.23 -39.78C0.69 -39.06 1.64 -38.31 2.62 -37.51C3.59 -36.72 4.55 -35.87 5.5 -34.97C6.45 -34.07 7.31 -33.16 8.08 -32.24C8.64 -31.57 9.2 -31.15 9.73 -30.97C10.27 -30.79 10.72 -30.83 11.08 -31.09C11.64 -31.5 11.81 -32.19 11.58 -33.16C11.35 -34.14 10.95 -35.04 10.39 -35.86C9.87 -36.58 9.14 -37.45 8.19 -38.47C7.25 -39.5 6.23 -40.51 5.16 -41.51C4.08 -42.51 3 -43.44 1.92 -44.28C0.85 -45.13 -0.1 -45.78 -0.92 -46.24C-1.39 -46.5 -1.92 -46.63 -2.54 -46.63C-1.31 -49.09 0.03 -51.4 1.46 -53.55C2.03 -54.43 2.3 -55.26 2.27 -56.06C2.24 -56.85 1.72 -57.5 0.69 -58.02C0.23 -58.22 -0.32 -58.21 -0.96 -57.98C-1.6 -57.75 -2.15 -57.35 -2.62 -56.79C-3.8 -55.35 -4.94 -53.64 -6.04 -51.67C-7.14 -49.69 -8.13 -47.6 -9 -45.4C-9.87 -43.19 -10.57 -40.95 -11.08 -38.67C-11.59 -36.38 -11.8 -34.22 -11.7 -32.16C-11.64 -31.45 -11.41 -30.84 -11 -30.36C-10.59 -29.87 -10.05 -29.65 -9.39 -29.7C-8.57 -29.7 -7.99 -29.95 -7.66 -30.43C-7.32 -30.92 -7.13 -31.45 -7.08 -32.01C-6.98 -33.65 -6.67 -35.42 -6.16 -37.32C-5.64 -39.22 -4.98 -41.14 -4.16 -43.09C-3.8 -42.47 -3.33 -41.99 -2.77 -41.63ZM26.55 -55.02C26.7 -55.79 26.69 -56.57 26.51 -57.36C26.33 -58.16 25.88 -58.61 25.16 -58.71C24.14 -58.81 23.31 -58.56 22.7 -57.94C22.08 -57.33 21.67 -56.63 21.47 -55.86C21.16 -54.68 20.9 -53.26 20.7 -51.59C20.49 -49.93 20.31 -48.25 20.16 -46.55C20.01 -44.86 19.9 -43.24 19.85 -41.71C19.8 -40.17 19.83 -38.99 19.93 -38.17C20.03 -37.19 20.28 -36.31 20.66 -35.51C21.04 -34.72 21.57 -34.29 22.24 -34.24C22.65 -34.14 23.06 -34.32 23.47 -34.78C23.88 -35.24 24.11 -35.88 24.16 -36.7C24.16 -37.88 24.24 -39.28 24.39 -40.9C24.55 -42.51 24.74 -44.17 24.97 -45.86C25.2 -47.55 25.46 -49.19 25.74 -50.78C26.02 -52.38 26.29 -53.79 26.55 -55.02Z M57.33 -36.93C58.71 -37.09 60.22 -37.37 61.87 -37.78C61.61 -36.65 61.35 -35.31 61.1 -33.74C60.84 -32.18 60.62 -30.54 60.44 -28.82C60.26 -27.1 60.12 -25.39 60.02 -23.7C59.92 -22.01 59.86 -20.49 59.86 -19.16C59.25 -18.9 58.36 -18.7 57.21 -18.54C56.06 -18.39 55.15 -18.24 54.48 -18.08C53.91 -17.93 53.45 -17.58 53.09 -17.04C52.73 -16.51 52.61 -15.95 52.71 -15.39C52.86 -14.41 53.34 -13.8 54.13 -13.54C54.93 -13.29 55.74 -13.21 56.56 -13.31C57.89 -13.47 59.48 -13.73 61.33 -14.12C63.17 -14.5 65.05 -14.94 66.94 -15.43C68.84 -15.92 70.61 -16.44 72.25 -17.01C73.89 -17.57 75.2 -18.08 76.18 -18.54C76.49 -18.7 76.83 -18.9 77.22 -19.16C77.6 -19.42 77.95 -19.71 78.25 -20.04C78.56 -20.38 78.79 -20.74 78.95 -21.12C79.1 -21.51 79.13 -21.9 79.02 -22.31C78.92 -22.62 78.55 -22.83 77.91 -22.93C77.27 -23.03 76.36 -22.93 75.18 -22.62C74.56 -22.47 73.79 -22.26 72.87 -22.01C71.95 -21.75 70.98 -21.51 69.98 -21.28C68.98 -21.04 68.01 -20.81 67.06 -20.58C66.11 -20.35 65.35 -20.19 64.79 -20.08C64.74 -20.85 64.73 -22.03 64.75 -23.62C64.78 -25.21 64.85 -26.93 64.98 -28.78C65.11 -30.62 65.26 -32.47 65.44 -34.32C65.62 -36.16 65.82 -37.7 66.02 -38.94C66.99 -39.29 67.94 -39.68 68.87 -40.09C69.79 -40.5 70.64 -40.96 71.41 -41.47C72.38 -42.09 73.2 -42.71 73.87 -43.32C74.54 -43.94 74.69 -44.68 74.33 -45.55C73.82 -46.68 72.64 -46.81 70.79 -45.94C69.46 -45.37 68.21 -44.9 67.06 -44.51C65.9 -44.13 64.75 -43.8 63.6 -43.51C62.44 -43.23 61.22 -42.96 59.94 -42.71C58.66 -42.45 57.25 -42.14 55.71 -41.78C55.61 -43.12 55.56 -44.59 55.56 -46.21C55.56 -47.82 55.61 -49.5 55.71 -51.25C55.71 -51.45 55.67 -51.71 55.59 -52.02C55.52 -52.32 55.4 -52.63 55.25 -52.94C55.09 -53.25 54.9 -53.5 54.67 -53.71C54.44 -53.91 54.17 -54.04 53.86 -54.09C53.25 -54.14 52.73 -53.9 52.32 -53.36C51.91 -52.82 51.58 -52.2 51.32 -51.48C51.12 -50.91 50.94 -50.18 50.78 -49.28C50.63 -48.39 50.53 -47.39 50.48 -46.28C50.43 -45.18 50.49 -44.03 50.67 -42.82C50.85 -41.62 51.2 -40.45 51.71 -39.32C52.12 -38.35 52.82 -37.67 53.82 -37.28C54.82 -36.9 55.99 -36.78 57.33 -36.93ZM73.1 -8.85C72.64 -9.26 72.11 -9.61 71.52 -9.89C70.93 -10.17 70.38 -10.26 69.87 -10.16C69.87 -10.57 69.8 -10.95 69.68 -11.31C69.55 -11.67 69.3 -11.98 68.94 -12.23C68.23 -12.65 67.57 -12.63 66.98 -12.2C66.39 -11.76 65.84 -11.29 65.33 -10.77C64.3 -9.54 63.34 -8.09 62.44 -6.43C61.54 -4.76 61.04 -2.9 60.94 -0.85C60.89 0.18 61.12 1.14 61.63 2.04C62.15 2.94 62.76 3.51 63.48 3.77C64.92 4.33 66.41 4.31 67.94 3.69C69.48 3.08 70.84 2.03 72.02 0.54C72.54 -0.08 72.98 -0.8 73.37 -1.62C73.75 -2.44 74.01 -3.27 74.14 -4.12C74.27 -4.96 74.25 -5.81 74.1 -6.66C73.95 -7.5 73.61 -8.23 73.1 -8.85ZM68.94 -7.54L69.02 -7.62C69.28 -7.31 69.55 -7 69.83 -6.69C70.11 -6.39 70.2 -6.03 70.1 -5.62C69.94 -4.49 69.51 -3.48 68.79 -2.58C68.07 -1.68 67.12 -0.97 65.94 -0.46C65.99 -1.8 66.29 -3.05 66.83 -4.23C67.37 -5.41 68.07 -6.51 68.94 -7.54Z M138.2 -21.39C138.09 -24.11 138.07 -26.92 138.12 -29.82C138.17 -32.72 138.25 -35.5 138.35 -38.17C138.3 -39.29 137.89 -40.27 137.12 -41.09C136.76 -41.45 136.38 -41.65 135.96 -41.71C135.55 -41.76 135.17 -41.69 134.81 -41.51C134.45 -41.33 134.16 -41.09 133.93 -40.78C133.69 -40.47 133.58 -40.14 133.58 -39.78C133.53 -38.6 133.49 -37.43 133.46 -36.28C133.44 -35.13 133.43 -33.96 133.43 -32.78C132.86 -32.52 132.36 -32.25 131.93 -31.97C131.49 -31.69 131.14 -31.5 130.89 -31.39C128.17 -29.75 125.35 -28.16 122.42 -26.62C119.5 -25.08 116.6 -23.65 113.73 -22.31C113.62 -22.21 113.52 -22.15 113.42 -22.12C113.32 -22.1 113.21 -22.03 113.11 -21.93C113.21 -22.75 113.32 -23.52 113.42 -24.24C113.52 -24.96 113.62 -25.65 113.73 -26.32C113.98 -27.96 113.71 -29.29 112.92 -30.32C112.12 -31.34 110.83 -31.75 109.03 -31.55C108.26 -31.45 107.35 -31.27 106.3 -31.01C105.25 -30.75 104.21 -30.46 103.19 -30.12C102.16 -29.79 101.2 -29.44 100.3 -29.09C99.4 -28.73 98.7 -28.42 98.18 -28.16C97.93 -28.01 97.62 -27.73 97.26 -27.32C96.9 -26.91 96.85 -26.34 97.11 -25.62C97.36 -24.91 97.86 -24.43 98.61 -24.2C99.35 -23.97 100.18 -24.01 101.11 -24.32C102.19 -24.73 103.45 -25.14 104.92 -25.55C106.38 -25.96 107.67 -26.26 108.8 -26.47C108.55 -24.16 108.17 -21.55 107.69 -18.62C107.2 -15.7 106.73 -12.7 106.26 -9.62C106.16 -8.95 106.25 -8.3 106.53 -7.66C106.81 -7.01 107.26 -6.67 107.88 -6.62C108.39 -6.57 108.84 -6.68 109.23 -6.96C109.61 -7.25 109.93 -7.58 110.19 -7.96C110.44 -8.35 110.64 -8.76 110.76 -9.2C110.89 -9.63 110.98 -10 111.03 -10.31C111.29 -11.54 111.55 -12.84 111.8 -14.2C112.06 -15.56 112.29 -16.9 112.5 -18.24C113.37 -17.83 114.57 -17.88 116.11 -18.39C119.04 -19.67 121.99 -21.11 124.96 -22.7C127.94 -24.29 130.63 -25.98 133.04 -27.78C133.09 -27.83 133.14 -27.87 133.19 -27.89C133.25 -27.92 133.32 -27.98 133.43 -28.09C133.48 -26.6 133.54 -25.08 133.62 -23.55C133.69 -22.01 133.81 -20.42 133.96 -18.78C134.07 -18.01 134.28 -17.25 134.62 -16.51C134.95 -15.76 135.45 -15.44 136.12 -15.54C136.63 -15.59 137.03 -15.8 137.31 -16.16C137.59 -16.52 137.81 -16.98 137.97 -17.54C138.12 -18.11 138.21 -18.72 138.23 -19.39C138.26 -20.06 138.25 -20.72 138.2 -21.39ZM116.5 -42.55C116.81 -43.99 116.63 -45.27 115.96 -46.4C115.29 -47.53 114.42 -48.5 113.34 -49.32C113.6 -49.78 113.65 -50.19 113.5 -50.55C113.14 -51.32 112.64 -51.8 112 -51.98C111.35 -52.16 110.7 -52.07 110.03 -51.71C107.78 -50.53 105.93 -49 104.49 -47.13C103.06 -45.26 102.13 -43.37 101.72 -41.47C101.52 -40.45 101.62 -39.41 102.03 -38.36C102.44 -37.31 103.16 -36.58 104.19 -36.16C105.31 -35.7 106.55 -35.55 107.88 -35.7C109.21 -35.86 110.47 -36.25 111.65 -36.9C112.83 -37.54 113.87 -38.35 114.77 -39.32C115.66 -40.29 116.24 -41.37 116.5 -42.55ZM127.73 -13.39C127.78 -13.54 127.78 -13.8 127.73 -14.16C127.68 -14.52 127.55 -14.88 127.35 -15.24C127.14 -15.59 126.87 -15.92 126.54 -16.2C126.21 -16.48 125.78 -16.65 125.27 -16.7C124.71 -16.75 124.26 -16.65 123.92 -16.39C123.59 -16.13 123.32 -15.57 123.11 -14.7L122.19 -10.23C121.88 -8.75 121.68 -7.26 121.58 -5.77C121.52 -5.05 121.6 -4.35 121.81 -3.65C122.01 -2.96 122.35 -2.36 122.81 -1.85C123.27 -1.33 123.86 -0.95 124.58 -0.69C125.29 -0.44 126.14 -0.41 127.12 -0.62C129.48 -1.23 131.75 -1.9 133.93 -2.62C136.11 -3.33 138.4 -4.28 140.81 -5.46C141.79 -5.92 142.48 -6.43 142.89 -6.96C143.3 -7.5 143.45 -7.98 143.35 -8.39C143.1 -9.21 142.58 -9.73 141.81 -9.96C141.04 -10.2 140.2 -10.13 139.27 -9.77C137.48 -9.05 135.43 -8.26 133.12 -7.39C130.81 -6.51 128.65 -5.87 126.65 -5.46C126.76 -6.59 126.9 -7.9 127.08 -9.39C127.26 -10.88 127.48 -12.21 127.73 -13.39ZM106.34 -40.4C107.21 -42.86 108.8 -45.09 111.11 -47.09C111.88 -46.27 112.28 -45.42 112.3 -44.55C112.33 -43.68 112.06 -42.99 111.5 -42.47C110.78 -41.76 109.92 -41.2 108.92 -40.82C107.92 -40.44 107.06 -40.29 106.34 -40.4Z"></path></g></g></svg>