<svg xmlns="http://www.w3.org/2000/svg" version="1.1" xlink="http://www.w3.org/1999/xlink" xmlns:svgjs="http://svgjs.com/svgjs" width="100%" height="100%" preserveAspectRatio="xMidYMid meet" viewBox="0 0 300.0042419433594 97.00971984863281" overflow="visible"><defs id="SvgjsDefs38613"></defs><g id="SvgjsG38614" transform="scale(0.6521739130434783)" opacity="1"><g id="SvgjsG38615" class="LYEc9QnhF" transform="translate(0, 0) scale(1.487482423555942)" light-content="false" non-strokable="false" fill="#000000"><path d="M0 0h100v100H0z"></path></g><g id="SvgjsG38616" class="f0rWQ6JX0k" transform="translate(11.442990729352132, 11.43756468354858) scale(1.258659616951461)" light-content="true" non-strokable="false" fill="#ffffff"><path d="M49 74.348v14.836c0 .55.45 1 1 1s1-.45 1-1V74.348c8.496-.422 16.215-6.106 18.195-13.574 1.063-4.012.59-8.129-.031-12.344-1.86-12.559-4.383-25.559-12.82-34.359-1.59-1.66-2.992-2.84-4.414-3.71a3.723 3.723 0 0 0-3.86 0c-1.422.87-2.824 2.05-4.414 3.71-8.437 8.8-10.96 21.801-12.82 34.359-.625 4.215-1.098 8.332-.031 12.344 1.98 7.469 9.7 13.152 18.195 13.574zM32.816 48.719c1.813-12.238 4.254-24.891 12.285-33.27 1.469-1.531 2.742-2.61 4.016-3.39a1.694 1.694 0 0 1 1.766 0c1.269.78 2.546 1.859 4.015 3.39 8.027 8.379 10.473 21.027 12.285 33.27.594 4 1.043 7.894.078 11.539-1.988 7.5-9.656 11.703-16.262 12.09V51.457l5.355-5.356a1 1 0 1 0-1.414-1.414L51 48.63V37.817c0-.551-.45-1-1-1s-1 .449-1 1v21.535l-6.543-6.543a1 1 0 1 0-1.414 1.414L49 62.18v10.172c-6.606-.39-14.273-4.594-16.262-12.09-.969-3.648-.516-7.54.078-11.543z"></path></g><g id="SvgjsG38617" class="text" transform="translate(322.5265572583998, 95.51325559032728) scale(1)" light-content="false" fill="#000000"><path d="M-119.01 -26.98C-117.77 -28.95 -116.66 -30.97 -115.68 -33.03C-114.69 -35.1 -113.82 -37.29 -113.04 -39.6C-114.55 -40.1 -116.25 -40.63 -118.14 -41.19C-120.03 -41.75 -121.77 -42.23 -123.35 -42.61L-124.45 -40.88C-123.6 -40.49 -122.85 -40.1 -122.19 -39.72C-121.54 -39.33 -121.07 -38.98 -120.8 -38.68C-120.61 -38.37 -120.48 -38.12 -120.43 -37.92C-120.37 -37.73 -120.44 -37.32 -120.63 -36.71C-121.21 -34.51 -122.03 -32.24 -123.09 -29.9C-124.15 -27.57 -125.42 -25.27 -126.91 -23.01C-128.4 -20.76 -130.09 -18.56 -131.98 -16.41C-133.87 -14.27 -135.95 -12.31 -138.23 -10.54L-136.55 -8.97C-130.03 -13.53 -124.76 -18.66 -120.74 -24.37C-118.66 -21.94 -116.61 -19.51 -114.58 -17.08C-112.55 -14.65 -110.59 -12.33 -108.7 -10.13L-104.48 -14.3C-107.14 -16.27 -109.72 -18.35 -112.2 -20.55C-114.69 -22.75 -116.96 -24.9 -119.01 -26.98ZM-98.22 -26.11L-98.22 -5.79C-98.22 -4.67 -98.21 -3.48 -98.19 -2.23C-98.17 -0.97 -98.14 0.24 -98.08 1.42C-98.02 2.6 -97.96 3.71 -97.9 4.75C-97.85 5.79 -97.78 6.62 -97.7 7.24L-93.82 6.72C-93.67 5.87 -93.53 4.74 -93.42 3.33C-93.3 1.92 -93.2 0.43 -93.1 -1.13C-93 -2.69 -92.93 -4.26 -92.87 -5.82C-92.81 -7.38 -92.78 -8.76 -92.78 -9.96L-92.78 -42.03C-92.78 -42.23 -92.76 -42.53 -92.72 -42.96C-92.68 -43.38 -92.63 -43.86 -92.55 -44.38C-92.47 -44.9 -92.39 -45.41 -92.32 -45.91C-92.24 -46.41 -92.16 -46.84 -92.09 -47.19C-92.86 -47.3 -93.75 -47.46 -94.78 -47.65C-95.8 -47.84 -96.87 -48.05 -97.99 -48.26C-99.11 -48.47 -100.23 -48.66 -101.35 -48.84C-102.47 -49.01 -103.49 -49.15 -104.42 -49.27L-105.46 -47.13C-102.91 -46.51 -101.07 -45.83 -99.93 -45.07C-98.79 -44.32 -98.22 -43.35 -98.22 -42.15L-98.22 -29.06C-99.5 -28.99 -100.81 -28.95 -102.16 -28.95C-103.51 -28.95 -104.67 -28.93 -105.63 -28.89C-106.21 -28.89 -106.87 -28.9 -107.6 -28.92C-108.34 -28.94 -109.06 -28.97 -109.77 -29.01C-110.49 -29.05 -111.16 -29.09 -111.8 -29.15C-112.44 -29.21 -112.95 -29.28 -113.33 -29.35L-111.19 -24.9C-110.5 -25.01 -109.67 -25.14 -108.7 -25.27C-107.74 -25.41 -106.68 -25.52 -105.52 -25.62C-104.36 -25.72 -103.16 -25.8 -101.93 -25.88Z M-66.9 -19.97L-66.9 -11.52L-70.37 -11.29C-71.53 -11.21 -72.71 -11.14 -73.91 -11.06C-74.45 -11.06 -75.11 -11.07 -75.9 -11.09C-76.69 -11.11 -77.52 -11.15 -78.39 -11.23C-79.26 -11.31 -80.12 -11.39 -80.97 -11.46C-81.82 -11.54 -82.55 -11.64 -83.17 -11.75L-80.33 -6.83C-79.68 -6.95 -78.91 -7.05 -78.05 -7.15L-75.44 -7.44C-74.57 -7.54 -73.76 -7.61 -73.01 -7.67C-72.26 -7.73 -71.67 -7.78 -71.24 -7.82C-69.39 -7.97 -67.37 -8.19 -65.19 -8.48C-63.01 -8.77 -60.74 -9.11 -58.39 -9.5C-56.03 -9.88 -53.63 -10.31 -51.18 -10.77C-48.73 -11.23 -46.35 -11.73 -44.03 -12.27L-44.03 -5.79C-44.03 -4.67 -44.02 -3.48 -44 -2.23C-43.98 -0.97 -43.94 0.24 -43.89 1.42C-43.83 2.6 -43.76 3.71 -43.68 4.75C-43.61 5.79 -43.53 6.62 -43.45 7.24L-39.63 6.72C-39.48 5.87 -39.33 4.74 -39.2 3.33C-39.06 1.92 -38.95 0.43 -38.85 -1.13C-38.75 -2.69 -38.68 -4.26 -38.62 -5.82C-38.56 -7.38 -38.53 -8.76 -38.53 -9.96L-38.53 -20.55L-35.9 -20.55L-33.09 -20.55L-30.43 -20.55C-29.58 -20.55 -28.84 -20.53 -28.22 -20.5L-27.59 -25.19C-29.21 -24.92 -31.03 -24.67 -33.06 -24.46C-35.09 -24.25 -36.91 -24.09 -38.53 -23.97L-38.53 -42.03C-38.53 -42.23 -38.51 -42.53 -38.47 -42.96C-38.43 -43.38 -38.39 -43.86 -38.33 -44.38C-38.27 -44.9 -38.2 -45.41 -38.13 -45.91C-38.05 -46.41 -37.97 -46.84 -37.89 -47.19C-38.63 -47.3 -39.5 -47.46 -40.5 -47.65C-41.5 -47.84 -42.57 -48.05 -43.71 -48.26C-44.85 -48.47 -45.98 -48.66 -47.1 -48.84C-48.22 -49.01 -49.26 -49.15 -50.23 -49.27L-51.27 -47.13C-48.64 -46.51 -46.78 -45.83 -45.68 -45.07C-44.58 -44.32 -44.03 -43.35 -44.03 -42.15L-44.03 -14.76C-46.69 -14.22 -49.48 -13.71 -52.4 -13.23C-55.31 -12.75 -58.33 -12.33 -61.46 -11.98L-61.46 -20.09C-59.91 -20.36 -58.49 -20.81 -57.17 -21.45C-55.86 -22.09 -54.74 -22.86 -53.82 -23.77C-52.89 -24.67 -52.17 -25.71 -51.64 -26.86C-51.12 -28.02 -50.86 -29.26 -50.86 -30.57C-50.86 -31.92 -51.13 -33.19 -51.67 -34.39C-52.21 -35.59 -52.98 -36.65 -53.96 -37.58C-54.94 -38.5 -56.11 -39.28 -57.46 -39.92C-58.81 -40.56 -60.3 -40.99 -61.92 -41.22C-61.81 -41.72 -61.67 -42.18 -61.52 -42.58C-61.36 -42.99 -61.23 -43.37 -61.11 -43.71C-61.57 -43.83 -62.1 -43.94 -62.7 -44.06L-64.5 -44.41C-65.1 -44.52 -65.68 -44.64 -66.26 -44.75C-66.84 -44.87 -67.34 -44.97 -67.77 -45.04L-68.75 -43.37C-67.83 -43.06 -67.19 -42.76 -66.84 -42.47C-66.5 -42.18 -66.28 -41.8 -66.21 -41.34C-67.94 -41.18 -69.53 -40.8 -70.98 -40.18C-72.43 -39.56 -73.68 -38.77 -74.75 -37.81C-75.81 -36.84 -76.63 -35.74 -77.21 -34.51C-77.78 -33.27 -78.07 -31.96 -78.07 -30.57C-78.07 -29.22 -77.8 -27.95 -77.26 -26.75C-76.72 -25.55 -75.96 -24.48 -74.98 -23.54C-73.99 -22.59 -72.82 -21.81 -71.45 -21.19C-70.08 -20.57 -68.56 -20.17 -66.9 -19.97ZM-56.65 -30.8C-56.65 -29.68 -56.86 -28.65 -57.26 -27.7C-57.67 -26.76 -58.22 -25.95 -58.91 -25.27C-59.61 -24.6 -60.43 -24.07 -61.37 -23.68C-62.32 -23.29 -63.33 -23.1 -64.41 -23.1C-65.53 -23.1 -66.57 -23.29 -67.54 -23.68C-68.5 -24.07 -69.34 -24.6 -70.06 -25.27C-70.77 -25.95 -71.33 -26.76 -71.73 -27.7C-72.14 -28.65 -72.34 -29.68 -72.34 -30.8C-72.34 -31.92 -72.14 -32.96 -71.73 -33.93C-71.33 -34.89 -70.77 -35.73 -70.06 -36.45C-69.34 -37.16 -68.5 -37.72 -67.54 -38.13C-66.57 -38.53 -65.53 -38.73 -64.41 -38.73C-63.33 -38.73 -62.32 -38.53 -61.37 -38.13C-60.43 -37.72 -59.61 -37.16 -58.91 -36.45C-58.22 -35.73 -57.67 -34.89 -57.26 -33.93C-56.86 -32.96 -56.65 -31.92 -56.65 -30.8Z M-4.89 -33.29C-2.65 -36.19 -0.88 -39.33 0.43 -42.73C-1.11 -43.31 -2.78 -43.87 -4.57 -44.41C-6.37 -44.95 -8.08 -45.43 -9.7 -45.85L-10.97 -44.06C-10.16 -43.67 -9.45 -43.32 -8.83 -42.99C-8.21 -42.66 -7.75 -42.36 -7.44 -42.09C-7.25 -41.98 -7.1 -41.8 -7.01 -41.57C-6.91 -41.34 -6.98 -40.88 -7.21 -40.18C-7.86 -38.25 -8.79 -36.32 -9.99 -34.39C-11.18 -32.46 -12.59 -30.59 -14.21 -28.77C-15.83 -26.96 -17.6 -25.25 -19.51 -23.65C-21.42 -22.05 -23.42 -20.59 -25.5 -19.28L-24 -17.6C-20.95 -19.18 -17.92 -21.07 -14.91 -23.27C-11.9 -25.47 -9.14 -28.04 -6.63 -30.98C-4.66 -29.12 -2.8 -27.31 -1.04 -25.53C0.71 -23.76 2.54 -21.9 4.43 -19.97L8.66 -23.85C5.99 -25.36 3.56 -26.9 1.36 -28.49C-0.84 -30.07 -2.92 -31.67 -4.89 -33.29ZM8.19 -49.27L7.15 -47.13C9.7 -46.51 11.54 -45.83 12.68 -45.07C13.82 -44.32 14.39 -43.35 14.39 -42.15L14.39 -25.36C14.39 -24.82 14.4 -24.22 14.42 -23.56C14.44 -22.91 14.47 -22.24 14.53 -21.57C14.59 -20.89 14.64 -20.24 14.68 -19.63C14.72 -19.01 14.77 -18.51 14.85 -18.12L18.85 -18.7C18.96 -19.16 19.08 -19.81 19.19 -20.64C19.31 -21.47 19.41 -22.35 19.51 -23.27C19.61 -24.2 19.69 -25.14 19.74 -26.08C19.8 -27.03 19.83 -27.85 19.83 -28.54L19.83 -42.03C19.83 -42.23 19.85 -42.53 19.89 -42.96C19.93 -43.38 19.98 -43.86 20.06 -44.38C20.14 -44.9 20.21 -45.41 20.29 -45.91C20.37 -46.41 20.45 -46.84 20.52 -47.19C19.75 -47.3 18.86 -47.46 17.83 -47.65C16.81 -47.84 15.74 -48.05 14.62 -48.26C13.5 -48.47 12.38 -48.66 11.26 -48.84C10.14 -49.01 9.12 -49.15 8.19 -49.27ZM13.63 -13.9L13.46 -7.76C11.61 -7.64 9.64 -7.56 7.56 -7.5C5.47 -7.44 3.36 -7.41 1.22 -7.41C-0.93 -7.41 -3.07 -7.45 -5.21 -7.53C-7.35 -7.6 -9.41 -7.74 -11.38 -7.93L-12.36 -6.14C-11.43 -5.83 -10.68 -5.56 -10.1 -5.33C-9.52 -5.09 -9.09 -4.82 -8.8 -4.52C-8.51 -4.21 -8.32 -3.83 -8.22 -3.39C-8.12 -2.94 -8.08 -2.37 -8.08 -1.68L-8.08 2.37C-8.08 3.38 -7.82 4.19 -7.3 4.81C-6.77 5.42 -5.82 5.69 -4.43 5.62C-2.69 5.54 -0.75 5.47 1.39 5.41C3.53 5.36 5.75 5.31 8.05 5.27C10.34 5.23 12.66 5.22 15 5.24C17.33 5.26 19.54 5.31 21.62 5.38L22.55 0.75C20.93 1.02 19.05 1.27 16.91 1.51C14.76 1.74 12.58 1.93 10.36 2.08C8.14 2.24 6.01 2.34 3.97 2.4C1.92 2.46 0.2 2.47 -1.19 2.43C-1.88 2.39 -2.31 2.32 -2.46 2.2C-2.62 2.08 -2.69 1.72 -2.69 1.1L-2.69 -2.55C-2.69 -2.86 -2.68 -3.15 -2.66 -3.42C-2.64 -3.69 -2.62 -4.03 -2.58 -4.46C-1.61 -4.5 -0.33 -4.54 1.27 -4.6C2.88 -4.66 4.66 -4.71 6.63 -4.75C8.6 -4.79 10.68 -4.81 12.88 -4.81C15.08 -4.81 17.28 -4.75 19.48 -4.63L19.89 -8.28C19.66 -8.24 19.42 -8.21 19.19 -8.19C18.96 -8.17 18.69 -8.14 18.38 -8.11L19.14 -12.74C19.21 -13.08 19.29 -13.51 19.37 -14.01C19.44 -14.51 19.54 -15 19.66 -15.46C19.77 -16 19.91 -16.54 20.06 -17.08C18.17 -16.93 16.19 -16.79 14.13 -16.67C12.06 -16.56 10.02 -16.47 7.99 -16.41C5.96 -16.36 4.01 -16.33 2.14 -16.33L-2.87 -16.33C-3.48 -16.33 -4.21 -16.36 -5.04 -16.41C-5.87 -16.47 -6.7 -16.54 -7.53 -16.62C-8.36 -16.69 -9.15 -16.78 -9.9 -16.88C-10.65 -16.97 -11.24 -17.06 -11.67 -17.14L-8.95 -12.51C-8.25 -12.62 -7.49 -12.74 -6.66 -12.85C-5.83 -12.97 -5.02 -13.07 -4.23 -13.14C-3.44 -13.22 -2.7 -13.28 -2.03 -13.32C-1.35 -13.35 -0.82 -13.39 -0.43 -13.43C0.57 -13.51 1.69 -13.59 2.92 -13.66C4.16 -13.74 5.41 -13.81 6.69 -13.87C7.96 -13.92 9.21 -13.95 10.42 -13.95C11.64 -13.95 12.71 -13.93 13.63 -13.9Z M60.36 -21.77L60.36 -29.01C62.83 -29.08 65.28 -29.11 67.71 -29.09C70.14 -29.07 72.42 -29.03 74.54 -28.95L75.3 -33.58C73.48 -33.31 71.33 -33.06 68.84 -32.83C66.35 -32.6 63.83 -32.38 61.28 -32.19C58.74 -32 56.31 -31.85 53.99 -31.76C51.67 -31.66 49.78 -31.63 48.32 -31.67C47.54 -31.71 47.01 -31.9 46.72 -32.25C46.43 -32.6 46.29 -33.16 46.29 -33.93L46.29 -41.34C46.29 -41.99 46.33 -42.79 46.4 -43.71C46.48 -44.64 46.56 -45.35 46.64 -45.85C46.06 -45.97 45.29 -46.09 44.32 -46.2C43.36 -46.32 42.37 -46.43 41.37 -46.55C40.36 -46.67 39.39 -46.77 38.44 -46.87C37.5 -46.96 36.76 -47.05 36.21 -47.13L35.23 -44.93C36.39 -44.7 37.33 -44.46 38.07 -44.2C38.8 -43.95 39.37 -43.64 39.78 -43.28C40.18 -42.91 40.46 -42.47 40.61 -41.95C40.77 -41.43 40.85 -40.76 40.85 -39.95L40.85 -32.65C40.85 -31.46 41.15 -30.44 41.74 -29.61C42.34 -28.78 43.32 -28.43 44.67 -28.54C46.02 -28.62 47.56 -28.69 49.3 -28.75C51.04 -28.8 52.91 -28.85 54.92 -28.89L54.92 -21.6C53.41 -21.56 51.92 -21.53 50.46 -21.51C48.99 -21.49 47.61 -21.48 46.32 -21.48L42.76 -21.48C41.68 -21.48 40.77 -21.5 40.04 -21.54C38.3 -21.61 36.44 -21.72 34.45 -21.86C32.46 -21.99 30.6 -22.16 28.86 -22.35L30.83 -17.31C32.18 -17.5 33.71 -17.68 35.4 -17.83C37.1 -17.99 38.67 -18.1 40.09 -18.18C40.87 -18.22 41.99 -18.27 43.45 -18.32C44.92 -18.38 46.57 -18.44 48.4 -18.5C50.24 -18.56 52.18 -18.61 54.22 -18.67C56.27 -18.73 58.26 -18.79 60.21 -18.85C62.16 -18.9 63.97 -18.94 65.63 -18.96C67.29 -18.98 68.66 -18.99 69.74 -18.99C71.01 -18.99 72.28 -18.97 73.56 -18.93C74.83 -18.89 76.07 -18.86 77.26 -18.85C78.46 -18.83 79.57 -18.8 80.59 -18.76C81.62 -18.72 82.51 -18.68 83.29 -18.64L84.04 -23.39C81.91 -23.08 79.52 -22.81 76.86 -22.58C74.2 -22.35 71.57 -22.17 68.98 -22.06C68.06 -22.02 66.85 -21.98 65.37 -21.94C63.88 -21.9 62.21 -21.85 60.36 -21.77ZM59.95 -13.43C60.03 -13.93 60.15 -14.39 60.3 -14.79C60.45 -15.2 60.59 -15.56 60.71 -15.86C60.2 -15.98 59.64 -16.11 59.03 -16.24C58.41 -16.38 57.79 -16.5 57.17 -16.62C56.56 -16.73 55.97 -16.85 55.41 -16.96C54.85 -17.08 54.36 -17.18 53.93 -17.25L52.77 -15.57C53.74 -15.3 54.4 -15.02 54.77 -14.73C55.14 -14.45 55.36 -14.03 55.44 -13.49C53.78 -13.34 52.26 -12.98 50.89 -12.42C49.52 -11.86 48.34 -11.15 47.36 -10.28C46.38 -9.41 45.61 -8.4 45.07 -7.24C44.53 -6.08 44.26 -4.84 44.26 -3.53C44.26 -2.1 44.59 -0.77 45.25 0.46C45.9 1.7 46.81 2.77 47.97 3.68C49.13 4.58 50.51 5.3 52.11 5.82C53.71 6.34 55.46 6.6 57.35 6.6C59.24 6.6 60.99 6.34 62.62 5.82C64.24 5.3 65.64 4.58 66.81 3.68C67.99 2.77 68.91 1.7 69.56 0.46C70.22 -0.77 70.55 -2.1 70.55 -3.53C70.55 -4.81 70.29 -5.99 69.77 -7.09C69.25 -8.19 68.51 -9.18 67.57 -10.05C66.62 -10.91 65.5 -11.65 64.21 -12.25C62.92 -12.84 61.5 -13.24 59.95 -13.43ZM64.93 -3.88C64.93 -2.84 64.74 -1.87 64.35 -0.98C63.97 -0.1 63.43 0.68 62.73 1.33C62.04 1.99 61.23 2.5 60.3 2.87C59.37 3.23 58.39 3.42 57.35 3.42C56.31 3.42 55.33 3.23 54.42 2.87C53.52 2.5 52.73 1.99 52.05 1.33C51.37 0.68 50.84 -0.1 50.46 -0.98C50.07 -1.87 49.88 -2.84 49.88 -3.88C49.88 -4.88 50.07 -5.83 50.46 -6.72C50.84 -7.6 51.37 -8.38 52.05 -9.03C52.73 -9.69 53.52 -10.21 54.42 -10.6C55.33 -10.98 56.31 -11.17 57.35 -11.17C58.39 -11.17 59.36 -10.98 60.27 -10.6C61.18 -10.21 61.98 -9.69 62.67 -9.03C63.37 -8.38 63.92 -7.6 64.32 -6.72C64.73 -5.83 64.93 -4.88 64.93 -3.88Z M109.34 -43.71C109.42 -44.06 109.5 -44.41 109.6 -44.75C109.7 -45.1 109.84 -45.53 110.03 -46.03C109.61 -46.11 109.12 -46.19 108.56 -46.29C108 -46.39 107.43 -46.49 106.85 -46.61C106.27 -46.72 105.7 -46.83 105.14 -46.93C104.58 -47.02 104.11 -47.11 103.72 -47.19L102.97 -45.62C103.7 -45.35 104.22 -45.09 104.5 -44.84C104.79 -44.59 104.98 -44.25 105.05 -43.83C103.47 -43.71 102.02 -43.38 100.68 -42.84C99.35 -42.3 98.21 -41.61 97.27 -40.76C96.32 -39.91 95.58 -38.95 95.04 -37.86C94.5 -36.78 94.23 -35.65 94.23 -34.45C94.23 -33.1 94.54 -31.83 95.15 -30.66C95.77 -29.48 96.64 -28.46 97.76 -27.59C98.88 -26.72 100.19 -26.04 101.7 -25.56C103.2 -25.08 104.86 -24.84 106.68 -24.84C108.49 -24.84 110.16 -25.08 111.68 -25.56C113.21 -26.04 114.53 -26.72 115.65 -27.59C116.77 -28.46 117.65 -29.48 118.28 -30.66C118.92 -31.83 119.24 -33.1 119.24 -34.45C119.24 -35.61 119 -36.7 118.52 -37.72C118.03 -38.74 117.35 -39.66 116.46 -40.47C115.57 -41.28 114.52 -41.97 113.3 -42.53C112.09 -43.09 110.77 -43.48 109.34 -43.71ZM113.85 -34.62C113.85 -32.62 113.19 -31 111.86 -29.79C110.53 -28.57 108.88 -27.96 106.91 -27.96C105.98 -27.96 105.09 -28.13 104.24 -28.46C103.39 -28.78 102.65 -29.24 102.02 -29.82C101.38 -30.4 100.88 -31.09 100.51 -31.9C100.14 -32.71 99.96 -33.62 99.96 -34.62C99.96 -35.55 100.15 -36.43 100.54 -37.26C100.92 -38.09 101.44 -38.8 102.07 -39.4C102.71 -40 103.44 -40.47 104.27 -40.82C105.1 -41.16 105.98 -41.34 106.91 -41.34C107.87 -41.34 108.77 -41.16 109.6 -40.82C110.43 -40.47 111.16 -40 111.8 -39.4C112.44 -38.8 112.94 -38.09 113.3 -37.26C113.67 -36.43 113.85 -35.55 113.85 -34.62ZM136.72 4.86L137.48 0.29C135.82 0.56 133.83 0.79 131.51 0.98C129.2 1.18 126.82 1.34 124.39 1.48C121.96 1.61 119.63 1.71 117.39 1.77C115.15 1.82 113.31 1.83 111.89 1.79C111.08 1.76 110.55 1.65 110.32 1.48C110.09 1.3 109.98 0.85 109.98 0.12L109.98 -3.53C109.98 -4.27 110.01 -5.09 110.09 -5.99C110.17 -6.9 110.25 -7.58 110.32 -8.05C109.74 -8.12 109.01 -8.23 108.12 -8.37C107.24 -8.5 106.31 -8.63 105.34 -8.74C104.38 -8.86 103.45 -8.97 102.57 -9.09C101.68 -9.21 100.94 -9.3 100.36 -9.38L99.5 -7.24C100.65 -6.93 101.57 -6.66 102.25 -6.43C102.92 -6.2 103.43 -5.91 103.78 -5.56C104.13 -5.21 104.34 -4.78 104.42 -4.26C104.49 -3.73 104.53 -3.05 104.53 -2.2L104.53 1.97C104.53 2.82 104.82 3.55 105.4 4.17C105.98 4.79 106.97 5.06 108.35 4.98C110.05 4.86 112.05 4.78 114.35 4.72C116.64 4.66 119.06 4.61 121.58 4.57C124.11 4.54 126.68 4.54 129.28 4.6C131.89 4.66 134.37 4.75 136.72 4.86ZM128.5 -13.37C128.5 -12.8 128.52 -12.12 128.56 -11.35C128.6 -10.58 128.63 -9.81 128.65 -9.06C128.67 -8.31 128.7 -7.59 128.73 -6.92C128.77 -6.24 128.81 -5.71 128.85 -5.33L132.96 -5.91C133.08 -6.45 133.19 -7.23 133.31 -8.25C133.42 -9.27 133.53 -10.35 133.63 -11.49C133.72 -12.63 133.8 -13.74 133.86 -14.82C133.92 -15.9 133.95 -16.79 133.95 -17.48L133.95 -42.03C133.95 -42.23 133.96 -42.53 134 -42.96C134.04 -43.38 134.09 -43.86 134.15 -44.38C134.21 -44.9 134.26 -45.41 134.32 -45.91C134.38 -46.41 134.45 -46.84 134.52 -47.19C133.79 -47.3 132.91 -47.46 131.89 -47.65C130.87 -47.84 129.8 -48.05 128.68 -48.26C127.56 -48.47 126.44 -48.66 125.32 -48.84C124.2 -49.01 123.18 -49.15 122.25 -49.27L121.27 -47.13C123.81 -46.51 125.66 -45.83 126.8 -45.07C127.93 -44.32 128.5 -43.35 128.5 -42.15L128.5 -16.27C127.31 -16.19 126.04 -16.12 124.71 -16.07C123.38 -16.01 122.19 -15.96 121.15 -15.92C120.57 -15.92 119.92 -15.93 119.21 -15.95C118.5 -15.97 117.78 -16.01 117.07 -16.07C116.35 -16.12 115.68 -16.19 115.04 -16.27C114.41 -16.35 113.87 -16.4 113.45 -16.44L115.53 -12.1C116.27 -12.25 117.14 -12.4 118.14 -12.53C119.14 -12.67 120.22 -12.8 121.38 -12.91C122.54 -13.03 123.73 -13.12 124.94 -13.2C126.16 -13.28 127.35 -13.34 128.5 -13.37ZM109.92 -17.6L109.92 -19.51C115.05 -20.13 120.55 -21.06 126.42 -22.29L126.42 -24.66C124.14 -24.28 121.86 -23.92 119.59 -23.59C117.31 -23.27 114.97 -22.99 112.58 -22.75C110.19 -22.52 107.7 -22.32 105.11 -22.15C102.53 -21.97 99.81 -21.87 96.95 -21.83C96.29 -21.83 95.56 -21.84 94.75 -21.86C93.94 -21.88 93.1 -21.92 92.23 -22C91.36 -22.08 90.52 -22.16 89.71 -22.23C88.9 -22.31 88.19 -22.41 87.57 -22.52L90.41 -17.54C91.06 -17.66 91.83 -17.76 92.69 -17.86L95.3 -18.15C96.17 -18.25 96.98 -18.33 97.73 -18.41C98.48 -18.49 99.07 -18.55 99.5 -18.59C100.35 -18.66 101.17 -18.72 101.96 -18.76C102.75 -18.8 103.57 -18.86 104.42 -18.93L104.42 -16.79C104.42 -16.25 104.45 -15.65 104.5 -15C104.56 -14.34 104.62 -13.67 104.68 -13C104.74 -12.32 104.8 -11.69 104.88 -11.09C104.96 -10.49 105.04 -10 105.11 -9.61L109.05 -10.19C109.28 -11.12 109.48 -12.23 109.66 -13.52C109.83 -14.81 109.92 -16.17 109.92 -17.6Z"></path></g></g></svg>