<svg xmlns="http://www.w3.org/2000/svg" version="1.1" xlink="http://www.w3.org/1999/xlink" xmlns:svgjs="http://svgjs.com/svgjs" width="100%" height="100%" preserveAspectRatio="xMidYMid meet" viewBox="4.3319019482623844e-8 0 299.9999694824219 63.86986541748047" overflow="visible"><defs id="SvgjsDefs39405"></defs><g id="SvgjsG39406" transform="scale(0.7708389789888491)" opacity="1"><g id="SvgjsG39407" class="GsMkHUE2h" transform="translate(-0.5791746239999983, 0) scale(0.8285759999999999)" light-content="false" non-strokable="false" fill="#4a4a4a"><path d="M44 0l43.301 25v50L44 100 .699 75V25z"></path></g><g id="SvgjsG39408" class="NqplHmQxF1" transform="translate(4.947567015671915, 10.495530742320122) scale(0.618630236601613)" light-content="true" non-strokable="false" fill="#ffffff"><path d="M49 74.348v14.836c0 .55.45 1 1 1s1-.45 1-1V74.348c8.496-.422 16.215-6.106 18.195-13.574 1.063-4.012.59-8.129-.031-12.344-1.86-12.559-4.383-25.559-12.82-34.359-1.59-1.66-2.992-2.84-4.414-3.71a3.723 3.723 0 0 0-3.86 0c-1.422.87-2.824 2.05-4.414 3.71-8.437 8.8-10.96 21.801-12.82 34.359-.625 4.215-1.098 8.332-.031 12.344 1.98 7.469 9.7 13.152 18.195 13.574zM32.816 48.719c1.813-12.238 4.254-24.891 12.285-33.27 1.469-1.531 2.742-2.61 4.016-3.39a1.694 1.694 0 0 1 1.766 0c1.269.78 2.546 1.859 4.015 3.39 8.027 8.379 10.473 21.027 12.285 33.27.594 4 1.043 7.894.078 11.539-1.988 7.5-9.656 11.703-16.262 12.09V51.457l5.355-5.356a1 1 0 1 0-1.414-1.414L51 48.63V37.817c0-.551-.45-1-1-1s-1 .449-1 1v21.535l-6.543-6.543a1 1 0 1 0-1.414 1.414L49 62.18v10.172c-6.606-.39-14.273-4.594-16.262-12.09-.969-3.648-.516-7.54.078-11.543z"></path></g><g id="SvgjsG39409" class="text" transform="translate(249.76633875199997, 62.63879999999999) scale(1)" light-content="false" fill="#4a4a4a"><path d="M-119.79 -27.13C-117.26 -31.07 -115.21 -35.37 -113.64 -40.02C-114.42 -40.21 -115.3 -40.46 -116.28 -40.75C-117.26 -41.04 -118.26 -41.35 -119.3 -41.66C-120.33 -41.97 -121.35 -42.28 -122.34 -42.57C-123.34 -42.86 -124.23 -43.11 -125.01 -43.3L-126.24 -41.13C-125.38 -40.82 -124.59 -40.45 -123.87 -40.02C-123.14 -39.59 -122.69 -39.18 -122.49 -38.79C-122.49 -38.67 -122.47 -38.57 -122.43 -38.5C-122.39 -38.42 -122.35 -38.32 -122.31 -38.2C-122.28 -38.09 -122.26 -37.93 -122.26 -37.73C-122.26 -37.54 -122.31 -37.27 -122.43 -36.91C-123.02 -34.8 -123.84 -32.58 -124.89 -30.23C-125.95 -27.89 -127.22 -25.56 -128.7 -23.23C-130.19 -20.91 -131.88 -18.66 -133.77 -16.49C-135.66 -14.33 -137.74 -12.34 -140.01 -10.55L-137.96 -8.67C-134.56 -11.02 -131.55 -13.46 -128.94 -16C-126.32 -18.54 -124.01 -21.17 -122.02 -23.91C-119.99 -21.52 -117.93 -19.08 -115.84 -16.58C-113.75 -14.08 -111.83 -11.78 -110.07 -9.67L-105.15 -14.53C-107.69 -16.41 -110.25 -18.46 -112.85 -20.68C-115.45 -22.91 -117.76 -25.06 -119.79 -27.13ZM-100.17 -25.96L-100.17 -5.92C-100.17 -4.79 -100.16 -3.57 -100.14 -2.29C-100.12 -1 -100.08 0.27 -100.02 1.52C-99.96 2.77 -99.9 3.94 -99.84 5.01C-99.79 6.08 -99.72 6.93 -99.64 7.56L-94.66 6.86C-94.5 6 -94.36 4.84 -94.22 3.4C-94.08 1.95 -93.96 0.43 -93.87 -1.17C-93.77 -2.77 -93.69 -4.37 -93.63 -5.95C-93.57 -7.53 -93.54 -8.93 -93.54 -10.14L-93.54 -42.3C-93.54 -42.34 -93.52 -42.59 -93.46 -43.04C-93.4 -43.49 -93.34 -44 -93.28 -44.59C-93.22 -45.18 -93.15 -45.76 -93.08 -46.35C-93 -46.93 -92.92 -47.4 -92.84 -47.75C-93.58 -47.87 -94.53 -48.03 -95.68 -48.22C-96.84 -48.42 -98.04 -48.63 -99.29 -48.87C-100.54 -49.1 -101.77 -49.32 -102.98 -49.51C-104.19 -49.71 -105.24 -49.86 -106.14 -49.98L-107.49 -47.4C-104.91 -46.74 -103.05 -46.04 -101.89 -45.32C-100.74 -44.6 -100.17 -43.67 -100.17 -42.54L-100.17 -29.59C-101.49 -29.51 -102.73 -29.47 -103.89 -29.47C-105.04 -29.47 -106.04 -29.45 -106.9 -29.41C-107.49 -29.41 -108.19 -29.42 -109.01 -29.44C-109.83 -29.46 -110.65 -29.5 -111.47 -29.56C-112.29 -29.62 -113.07 -29.69 -113.79 -29.77C-114.51 -29.84 -115.07 -29.9 -115.46 -29.94L-112.82 -24.73C-112.2 -24.84 -111.42 -24.96 -110.48 -25.08C-109.54 -25.2 -108.51 -25.31 -107.37 -25.43C-106.24 -25.55 -105.06 -25.64 -103.83 -25.72C-102.6 -25.8 -101.38 -25.88 -100.17 -25.96Z M-68.12 -19.86L-68.12 -12.01C-69.21 -11.89 -70.28 -11.81 -71.34 -11.75C-72.39 -11.69 -73.49 -11.64 -74.62 -11.6C-75.05 -11.6 -75.7 -11.62 -76.58 -11.66C-77.46 -11.7 -78.4 -11.76 -79.39 -11.84C-80.39 -11.91 -81.37 -12 -82.32 -12.1C-83.28 -12.2 -84.05 -12.3 -84.64 -12.42L-81.36 -6.56C-80.69 -6.68 -79.9 -6.8 -78.98 -6.91C-78.07 -7.03 -77.15 -7.14 -76.23 -7.24C-75.31 -7.33 -74.45 -7.42 -73.65 -7.5C-72.85 -7.58 -72.24 -7.64 -71.81 -7.68C-70.09 -7.79 -68.16 -7.99 -66.04 -8.26C-63.91 -8.54 -61.68 -8.87 -59.36 -9.26C-57.03 -9.65 -54.68 -10.08 -52.29 -10.55C-49.91 -11.02 -47.59 -11.48 -45.32 -11.95L-45.32 -5.92C-45.32 -4.79 -45.31 -3.57 -45.29 -2.29C-45.27 -1 -45.23 0.27 -45.18 1.52C-45.12 2.77 -45.05 3.94 -44.97 5.01C-44.89 6.08 -44.79 6.93 -44.68 7.56L-39.81 6.86C-39.66 6 -39.51 4.84 -39.37 3.4C-39.24 1.95 -39.11 0.43 -38.99 -1.17C-38.88 -2.77 -38.79 -4.37 -38.73 -5.95C-38.67 -7.53 -38.64 -8.93 -38.64 -10.14L-38.64 -20.45L-35.89 -20.45L-33.05 -20.45C-32.13 -20.45 -31.27 -20.44 -30.47 -20.42C-29.67 -20.4 -28.99 -20.37 -28.45 -20.33L-27.74 -25.84C-28.45 -25.72 -29.25 -25.61 -30.15 -25.49C-31.04 -25.37 -31.98 -25.25 -32.96 -25.14C-33.94 -25.02 -34.92 -24.91 -35.92 -24.81C-36.91 -24.72 -37.82 -24.65 -38.64 -24.61L-38.64 -42.3C-38.64 -42.34 -38.62 -42.59 -38.58 -43.04C-38.54 -43.49 -38.5 -44 -38.44 -44.59C-38.38 -45.18 -38.31 -45.76 -38.23 -46.35C-38.16 -46.93 -38.08 -47.4 -38 -47.75C-38.7 -47.87 -39.61 -48.03 -40.72 -48.22C-41.84 -48.42 -43.02 -48.63 -44.27 -48.87C-45.52 -49.1 -46.77 -49.32 -48.02 -49.51C-49.27 -49.71 -50.36 -49.86 -51.3 -49.98L-52.65 -47.4C-49.91 -46.74 -48.01 -46.04 -46.93 -45.32C-45.86 -44.6 -45.32 -43.67 -45.32 -42.54L-45.32 -15.12C-47.78 -14.65 -50.37 -14.19 -53.09 -13.74C-55.8 -13.29 -58.62 -12.91 -61.55 -12.6L-61.55 -20.04C-58.39 -20.7 -55.83 -22 -53.88 -23.94C-51.92 -25.87 -50.95 -28.16 -50.95 -30.82C-50.95 -32.15 -51.22 -33.42 -51.77 -34.63C-52.31 -35.84 -53.07 -36.93 -54.02 -37.91C-54.98 -38.89 -56.14 -39.71 -57.51 -40.37C-58.88 -41.04 -60.38 -41.5 -62.02 -41.78C-61.87 -42.32 -61.7 -42.82 -61.52 -43.27C-61.35 -43.72 -61.22 -44.1 -61.14 -44.41C-61.61 -44.53 -62.19 -44.66 -62.87 -44.79C-63.55 -44.93 -64.27 -45.08 -65.01 -45.23C-65.75 -45.39 -66.46 -45.55 -67.15 -45.7C-67.83 -45.86 -68.39 -45.98 -68.82 -46.05L-70.05 -43.95C-69.07 -43.63 -68.42 -43.33 -68.09 -43.04C-67.75 -42.74 -67.55 -42.36 -67.47 -41.89C-69.23 -41.66 -70.83 -41.22 -72.28 -40.58C-73.72 -39.93 -74.96 -39.11 -76 -38.12C-77.03 -37.12 -77.83 -36.01 -78.4 -34.78C-78.96 -33.54 -79.25 -32.23 -79.25 -30.82C-79.25 -29.45 -78.98 -28.16 -78.46 -26.95C-77.93 -25.74 -77.18 -24.66 -76.2 -23.7C-75.22 -22.74 -74.05 -21.93 -72.69 -21.27C-71.32 -20.61 -69.79 -20.14 -68.12 -19.86ZM-57.98 -31C-57.98 -29.94 -58.16 -28.96 -58.54 -28.04C-58.91 -27.12 -59.4 -26.34 -60.03 -25.69C-60.65 -25.05 -61.4 -24.54 -62.26 -24.17C-63.12 -23.8 -64.03 -23.61 -65.01 -23.61C-66.03 -23.61 -66.98 -23.8 -67.88 -24.17C-68.78 -24.54 -69.56 -25.05 -70.22 -25.69C-70.89 -26.34 -71.41 -27.12 -71.78 -28.04C-72.15 -28.96 -72.33 -29.94 -72.33 -31C-72.33 -32.09 -72.15 -33.12 -71.78 -34.07C-71.41 -35.03 -70.89 -35.85 -70.22 -36.53C-69.56 -37.22 -68.78 -37.75 -67.88 -38.14C-66.98 -38.54 -66.03 -38.73 -65.01 -38.73C-64.07 -38.73 -63.17 -38.54 -62.31 -38.14C-61.46 -37.75 -60.7 -37.22 -60.06 -36.53C-59.41 -35.85 -58.91 -35.03 -58.54 -34.07C-58.16 -33.12 -57.98 -32.09 -57.98 -31Z M-4.31 -33.52C-2.08 -36.41 -0.26 -39.59 1.14 -43.07C0.36 -43.34 -0.51 -43.64 -1.46 -43.97C-2.42 -44.31 -3.39 -44.62 -4.37 -44.91C-5.34 -45.21 -6.31 -45.49 -7.27 -45.76L-9.93 -46.52C-10.17 -46.17 -10.42 -45.8 -10.69 -45.41C-10.97 -45.02 -11.2 -44.65 -11.4 -44.3L-9.29 -43.24C-8.66 -42.93 -8.19 -42.62 -7.88 -42.3C-7.57 -42.15 -7.44 -41.87 -7.5 -41.46C-7.56 -41.04 -7.63 -40.74 -7.71 -40.55C-8.37 -38.59 -9.31 -36.64 -10.52 -34.69C-11.73 -32.73 -13.14 -30.83 -14.77 -28.97C-16.39 -27.12 -18.15 -25.37 -20.07 -23.73C-21.98 -22.09 -23.96 -20.62 -25.99 -19.34C-25.67 -18.98 -25.37 -18.64 -25.08 -18.31C-24.79 -17.98 -24.48 -17.64 -24.17 -17.29C-21.01 -18.85 -17.91 -20.73 -14.88 -22.94C-11.86 -25.15 -9.05 -27.71 -6.47 -30.64C-4.6 -28.89 -2.75 -27.05 -0.94 -25.14C0.88 -23.22 2.67 -21.37 4.42 -19.57C5.2 -20.35 6.02 -21.11 6.86 -21.86C7.7 -22.6 8.51 -23.36 9.29 -24.14C6.87 -25.51 4.47 -27.02 2.11 -28.68C-0.25 -30.34 -2.39 -31.95 -4.31 -33.52ZM6.42 -47.4C9.03 -46.74 10.91 -46.04 12.04 -45.29C13.17 -44.55 13.74 -43.61 13.74 -42.48L13.74 -25.84C13.74 -25.33 13.76 -24.73 13.8 -24.02C13.84 -23.32 13.88 -22.61 13.92 -21.88C13.96 -21.16 14 -20.47 14.06 -19.8C14.12 -19.14 14.19 -18.61 14.27 -18.22C15.13 -18.3 15.98 -18.42 16.82 -18.57C17.66 -18.73 18.49 -18.85 19.31 -18.93C19.42 -19.39 19.54 -20.06 19.66 -20.92C19.78 -21.78 19.88 -22.69 19.98 -23.64C20.08 -24.6 20.17 -25.57 20.24 -26.54C20.32 -27.52 20.36 -28.36 20.36 -29.06L20.36 -42.3C20.36 -42.34 20.39 -42.59 20.45 -43.04C20.51 -43.49 20.58 -44 20.65 -44.59C20.73 -45.18 20.82 -45.76 20.92 -46.35C21.02 -46.93 21.1 -47.4 21.18 -47.75C20.4 -47.87 19.43 -48.03 18.28 -48.22C17.13 -48.42 15.92 -48.63 14.65 -48.87C13.38 -49.1 12.14 -49.32 10.93 -49.51C9.72 -49.71 8.66 -49.86 7.76 -49.98C7.57 -49.55 7.35 -49.12 7.12 -48.69ZM12.86 -8.09C11.1 -8.01 9.25 -7.95 7.29 -7.91C5.34 -7.87 3.35 -7.85 1.32 -7.85C-0.95 -7.85 -3.2 -7.89 -5.45 -7.97C-7.7 -8.05 -9.81 -8.18 -11.81 -8.38C-12.04 -8.03 -12.25 -7.67 -12.42 -7.29C-12.6 -6.92 -12.82 -6.56 -13.1 -6.21C-12.12 -5.9 -11.33 -5.62 -10.72 -5.39C-10.12 -5.16 -9.66 -4.89 -9.35 -4.6C-9.03 -4.31 -8.83 -3.95 -8.73 -3.52C-8.63 -3.09 -8.58 -2.52 -8.58 -1.82L-8.58 2.23C-8.58 3.24 -8.34 4.09 -7.85 4.78C-7.36 5.46 -6.38 5.8 -4.89 5.8C-2.67 5.8 -0.02 5.74 3.05 5.63C6.11 5.51 9.25 5.45 12.45 5.45C14.13 5.45 15.79 5.46 17.43 5.48C19.07 5.5 20.63 5.53 22.12 5.57C22.28 4.67 22.45 3.77 22.65 2.87C22.84 1.97 23.02 1.07 23.17 0.18C21.69 0.45 19.94 0.69 17.93 0.91C15.92 1.12 13.86 1.32 11.75 1.49C9.64 1.67 7.58 1.81 5.57 1.9C3.55 2 1.79 2.05 0.26 2.05L-1.11 2.05C-1.45 2.05 -1.68 2.02 -1.82 1.96C-1.95 1.9 -2.03 1.8 -2.05 1.64C-2.07 1.48 -2.08 1.25 -2.08 0.94L-2.08 -2.64C-2.08 -2.95 -2.07 -3.2 -2.05 -3.4C-2.03 -3.59 -2 -3.91 -1.96 -4.34C-0.75 -4.41 0.93 -4.47 3.08 -4.51C5.22 -4.55 7.61 -4.57 10.22 -4.57C13.43 -4.57 16.67 -4.51 19.95 -4.39C20.03 -5.14 20.12 -5.86 20.21 -6.56C20.31 -7.27 20.4 -7.99 20.48 -8.73C20.24 -8.69 20.02 -8.66 19.8 -8.64C19.59 -8.62 19.33 -8.59 19.01 -8.55C19.09 -9.3 19.19 -10.01 19.31 -10.69C19.42 -11.38 19.54 -12.09 19.66 -12.83C19.7 -13.18 19.78 -13.62 19.89 -14.15C20.01 -14.68 20.14 -15.2 20.27 -15.7C20.41 -16.21 20.52 -16.65 20.6 -17.02C20.67 -17.39 20.71 -17.6 20.71 -17.64C20.71 -17.52 20.21 -17.42 19.19 -17.34C18.17 -17.27 16.89 -17.2 15.35 -17.14C13.81 -17.08 12.12 -17.03 10.28 -16.99C8.45 -16.95 6.73 -16.92 5.13 -16.9C3.53 -16.88 2.16 -16.87 1.03 -16.85C-0.11 -16.83 -0.77 -16.82 -0.97 -16.82C-1.28 -16.82 -1.92 -16.84 -2.9 -16.87C-3.88 -16.91 -4.97 -16.97 -6.18 -17.05C-7.39 -17.13 -8.58 -17.22 -9.76 -17.31C-10.93 -17.41 -11.85 -17.54 -12.51 -17.7C-11.96 -16.8 -11.43 -15.89 -10.9 -14.97C-10.37 -14.05 -9.83 -13.14 -9.29 -12.25C-8.58 -12.36 -7.8 -12.48 -6.94 -12.6C-6.08 -12.71 -5.22 -12.81 -4.37 -12.89C-3.51 -12.97 -2.72 -13.04 -2.02 -13.1C-1.32 -13.15 -0.79 -13.2 -0.44 -13.24C1.2 -13.4 3 -13.54 4.95 -13.65C6.9 -13.77 8.76 -13.83 10.52 -13.83C10.99 -13.83 11.43 -13.82 11.84 -13.8C12.25 -13.78 12.65 -13.77 13.04 -13.77C13 -12.87 12.97 -11.93 12.95 -10.96C12.93 -9.98 12.9 -9.02 12.86 -8.09Z M61.67 -22.32L61.67 -29C64.13 -29.04 66.57 -29.05 68.99 -29.03C71.42 -29.01 73.66 -28.97 75.73 -28.89L76.55 -34.28C74.76 -34 72.59 -33.74 70.05 -33.49C67.51 -33.23 64.93 -33.01 62.31 -32.81C59.7 -32.62 57.2 -32.46 54.81 -32.34C52.43 -32.23 50.52 -32.19 49.07 -32.23C48.1 -32.27 47.61 -32.93 47.61 -34.22L47.61 -41.66C47.61 -42.32 47.65 -43.15 47.72 -44.15C47.8 -45.15 47.88 -45.9 47.96 -46.41C47.37 -46.52 46.55 -46.65 45.5 -46.79C44.44 -46.92 43.34 -47.06 42.19 -47.2C41.04 -47.33 39.94 -47.46 38.91 -47.58C37.87 -47.7 37.1 -47.79 36.59 -47.87L35.3 -45.18C36.51 -44.9 37.49 -44.64 38.23 -44.38C38.97 -44.13 39.55 -43.83 39.96 -43.48C40.37 -43.12 40.64 -42.71 40.78 -42.22C40.92 -41.73 40.99 -41.11 40.99 -40.37L40.99 -32.93C40.99 -32.27 41.06 -31.65 41.22 -31.08C41.38 -30.52 41.63 -30.03 41.98 -29.62C42.33 -29.21 42.79 -28.91 43.36 -28.71C43.93 -28.52 44.6 -28.46 45.38 -28.54C46.63 -28.57 48.08 -28.63 49.72 -28.71C51.36 -28.79 53.12 -28.83 54.99 -28.83L54.99 -22.03C53.54 -22.03 52.12 -22.02 50.71 -22C49.31 -21.98 47.99 -21.97 46.76 -21.97L43.39 -21.97C42.37 -21.97 41.51 -21.99 40.81 -22.03C39.05 -22.11 37.06 -22.24 34.83 -22.41C32.61 -22.59 30.62 -22.77 28.86 -22.97L31.2 -17.17C31.87 -17.25 32.62 -17.33 33.46 -17.43C34.3 -17.53 35.15 -17.62 36.01 -17.7C36.87 -17.77 37.71 -17.84 38.55 -17.9C39.39 -17.96 40.17 -18.01 40.87 -18.05C41.61 -18.09 42.71 -18.13 44.18 -18.19C45.64 -18.25 47.29 -18.31 49.13 -18.37C50.97 -18.43 52.91 -18.49 54.96 -18.54C57.01 -18.6 59 -18.66 60.94 -18.72C62.87 -18.78 64.67 -18.82 66.33 -18.84C67.99 -18.86 69.35 -18.87 70.4 -18.87C71.69 -18.87 73 -18.85 74.33 -18.81C75.65 -18.77 76.94 -18.74 78.19 -18.72C79.44 -18.7 80.61 -18.67 81.68 -18.63C82.75 -18.59 83.68 -18.55 84.46 -18.52L85.4 -24.02C84.31 -23.87 83.12 -23.72 81.83 -23.58C80.54 -23.45 79.2 -23.31 77.81 -23.17C76.43 -23.04 75.03 -22.91 73.62 -22.79C72.22 -22.68 70.87 -22.6 69.58 -22.56C68.72 -22.52 67.63 -22.48 66.3 -22.44C64.97 -22.4 63.43 -22.36 61.67 -22.32ZM61.26 -13.83C61.34 -14.37 61.46 -14.86 61.64 -15.29C61.82 -15.72 61.94 -16.09 62.02 -16.41C61.51 -16.52 60.9 -16.67 60.18 -16.85C59.45 -17.02 58.73 -17.18 58.01 -17.31C57.29 -17.45 56.58 -17.59 55.9 -17.72L54.29 -18.05L52.76 -15.94C53.78 -15.66 54.47 -15.39 54.84 -15.12C55.21 -14.84 55.44 -14.43 55.52 -13.89C53.84 -13.69 52.31 -13.3 50.95 -12.71C49.58 -12.13 48.41 -11.39 47.43 -10.49C46.46 -9.59 45.7 -8.55 45.18 -7.38C44.65 -6.21 44.38 -4.96 44.38 -3.63C44.38 -2.15 44.73 -0.77 45.41 0.5C46.09 1.77 47.03 2.87 48.22 3.81C49.41 4.75 50.85 5.48 52.53 6.01C54.21 6.53 56.04 6.8 58.04 6.8C60.03 6.8 61.87 6.53 63.54 6.01C65.22 5.48 66.68 4.75 67.91 3.81C69.14 2.87 70.1 1.77 70.78 0.5C71.46 -0.77 71.81 -2.15 71.81 -3.63C71.81 -4.92 71.55 -6.12 71.04 -7.24C70.54 -8.35 69.81 -9.36 68.88 -10.25C67.94 -11.15 66.83 -11.91 65.54 -12.54C64.25 -13.16 62.82 -13.59 61.26 -13.83ZM65.07 -3.98C65.07 -2.97 64.88 -2.03 64.51 -1.17C64.14 -0.31 63.63 0.42 62.99 1.03C62.34 1.63 61.59 2.11 60.73 2.46C59.87 2.81 58.97 2.99 58.04 2.99C57.1 2.99 56.22 2.81 55.4 2.46C54.58 2.11 53.86 1.63 53.23 1.03C52.61 0.42 52.11 -0.31 51.74 -1.17C51.37 -2.03 51.18 -2.97 51.18 -3.98C51.18 -4.96 51.37 -5.89 51.74 -6.77C52.11 -7.65 52.61 -8.4 53.23 -9.02C53.86 -9.65 54.58 -10.15 55.4 -10.52C56.22 -10.89 57.1 -11.07 58.04 -11.07C58.94 -11.07 59.81 -10.89 60.67 -10.52C61.53 -10.15 62.29 -9.65 62.93 -9.02C63.57 -8.4 64.09 -7.65 64.48 -6.77C64.87 -5.89 65.07 -4.96 65.07 -3.98Z M111.42 -44.3C111.46 -44.61 111.51 -44.95 111.59 -45.32C111.67 -45.69 111.85 -46.17 112.12 -46.76C111.69 -46.84 111.14 -46.93 110.48 -47.05C109.81 -47.17 109.12 -47.3 108.4 -47.46C107.68 -47.62 106.98 -47.75 106.32 -47.87C105.65 -47.99 105.13 -48.09 104.74 -48.16L103.74 -46.23C104.48 -45.96 105 -45.69 105.29 -45.44C105.59 -45.19 105.77 -44.84 105.85 -44.41C104.25 -44.22 102.79 -43.84 101.48 -43.27C100.18 -42.71 99.03 -41.99 98.06 -41.13C97.08 -40.27 96.33 -39.3 95.8 -38.2C95.27 -37.11 95.01 -35.96 95.01 -34.75C95.01 -33.34 95.34 -32.03 96.01 -30.82C96.67 -29.61 97.58 -28.55 98.73 -27.66C99.88 -26.76 101.25 -26.05 102.83 -25.55C104.41 -25.04 106.14 -24.79 108.02 -24.79C109.93 -24.79 111.69 -25.04 113.29 -25.55C114.89 -26.05 116.28 -26.76 117.45 -27.66C118.62 -28.55 119.53 -29.61 120.18 -30.82C120.82 -32.03 121.14 -33.34 121.14 -34.75C121.14 -35.92 120.9 -37.02 120.41 -38.06C119.92 -39.09 119.25 -40.02 118.39 -40.84C117.53 -41.66 116.5 -42.37 115.31 -42.98C114.12 -43.58 112.82 -44.02 111.42 -44.3ZM114.64 -34.92C114.64 -32.93 114.02 -31.36 112.79 -30.21C111.56 -29.05 110.05 -28.48 108.25 -28.48C107.43 -28.48 106.64 -28.63 105.88 -28.95C105.12 -29.26 104.44 -29.69 103.86 -30.23C103.27 -30.78 102.8 -31.46 102.45 -32.26C102.1 -33.06 101.92 -33.95 101.92 -34.92C101.92 -35.82 102.11 -36.66 102.48 -37.44C102.85 -38.22 103.33 -38.91 103.92 -39.49C104.5 -40.08 105.18 -40.54 105.94 -40.87C106.7 -41.2 107.47 -41.37 108.25 -41.37C109.11 -41.37 109.93 -41.2 110.71 -40.87C111.49 -40.54 112.18 -40.08 112.76 -39.49C113.35 -38.91 113.81 -38.22 114.14 -37.44C114.47 -36.66 114.64 -35.82 114.64 -34.92ZM138.54 5.16L139.42 -0.18C137.78 0.1 135.76 0.33 133.36 0.53C130.96 0.72 128.51 0.9 126.01 1.05C123.51 1.21 121.11 1.32 118.83 1.38C116.54 1.44 114.68 1.45 113.23 1.41C112.65 1.37 112.29 1.29 112.15 1.17C112.01 1.05 111.94 0.66 111.94 0L111.94 -3.63C111.94 -4.37 111.99 -5.23 112.09 -6.21C112.19 -7.19 112.28 -7.91 112.35 -8.38C111.77 -8.46 110.98 -8.57 109.98 -8.73C108.98 -8.89 107.94 -9.04 106.85 -9.2C105.75 -9.36 104.7 -9.49 103.68 -9.61C102.67 -9.73 101.87 -9.82 101.28 -9.9L100.28 -7.27C101.49 -6.99 102.44 -6.74 103.13 -6.5C103.81 -6.27 104.32 -5.99 104.65 -5.65C104.98 -5.32 105.19 -4.9 105.26 -4.39C105.34 -3.89 105.38 -3.22 105.38 -2.4L105.38 1.88C105.38 2.77 105.7 3.58 106.35 4.31C106.99 5.03 108.13 5.33 109.78 5.21C111.49 5.1 113.52 5.01 115.84 4.95C118.16 4.89 120.62 4.85 123.19 4.83C125.77 4.81 128.39 4.83 131.04 4.89C133.7 4.95 136.2 5.04 138.54 5.16ZM129.29 -13.18C129.33 -12.56 129.37 -11.87 129.4 -11.1C129.44 -10.34 129.47 -9.6 129.49 -8.88C129.51 -8.15 129.54 -7.48 129.58 -6.86C129.62 -6.23 129.64 -5.74 129.64 -5.39L134.91 -6.15C134.99 -6.7 135.09 -7.49 135.21 -8.53C135.32 -9.56 135.43 -10.66 135.53 -11.84C135.63 -13.01 135.71 -14.15 135.79 -15.26C135.87 -16.38 135.91 -17.29 135.91 -17.99L135.91 -42.3C135.91 -42.34 135.93 -42.59 135.97 -43.04C136.01 -43.49 136.05 -44 136.11 -44.59L136.29 -46.35C136.35 -46.93 136.42 -47.4 136.49 -47.75C135.75 -47.87 134.81 -48.03 133.68 -48.22C132.55 -48.42 131.37 -48.63 130.14 -48.87C128.91 -49.1 127.68 -49.32 126.45 -49.51C125.21 -49.71 124.13 -49.86 123.19 -49.98L121.96 -47.4C124.58 -46.74 126.46 -46.04 127.59 -45.32C128.72 -44.6 129.29 -43.67 129.29 -42.54L129.29 -16.64C128.04 -16.56 126.84 -16.5 125.68 -16.46C124.53 -16.43 123.54 -16.39 122.72 -16.35C122.14 -16.35 121.46 -16.37 120.67 -16.41C119.89 -16.45 119.1 -16.5 118.3 -16.58C117.5 -16.66 116.74 -16.74 116.02 -16.82C115.29 -16.89 114.7 -16.95 114.23 -16.99L116.69 -11.84C117.35 -11.99 118.17 -12.15 119.15 -12.3C120.13 -12.46 121.18 -12.6 122.31 -12.71C123.45 -12.83 124.61 -12.93 125.8 -13.01C126.99 -13.09 128.15 -13.14 129.29 -13.18ZM111.88 -18.11L111.88 -19.45C114.5 -19.8 117.15 -20.21 119.82 -20.68C122.5 -21.15 125.24 -21.7 128.06 -22.32L128.06 -25.31C123.53 -24.53 118.86 -23.86 114.05 -23.29C109.25 -22.72 104.01 -22.42 98.35 -22.38C97.69 -22.38 96.89 -22.4 95.98 -22.44C95.06 -22.48 94.12 -22.54 93.16 -22.62C92.21 -22.7 91.28 -22.78 90.38 -22.88C89.48 -22.98 88.74 -23.09 88.15 -23.2L91.44 -17.4C92.1 -17.52 92.89 -17.63 93.81 -17.72L96.56 -18.02C97.48 -18.12 98.33 -18.2 99.11 -18.28C99.89 -18.36 100.5 -18.42 100.93 -18.46C101.71 -18.54 102.43 -18.59 103.1 -18.63C103.76 -18.67 104.48 -18.73 105.26 -18.81L105.26 -17.29C105.26 -16.74 105.29 -16.11 105.35 -15.41C105.41 -14.71 105.48 -13.99 105.56 -13.27C105.63 -12.55 105.71 -11.87 105.79 -11.22C105.87 -10.58 105.93 -10.06 105.97 -9.67L110.95 -10.43C111.18 -11.37 111.4 -12.51 111.59 -13.86C111.79 -15.21 111.88 -16.62 111.88 -18.11Z"></path></g></g></svg>