<svg xmlns="http://www.w3.org/2000/svg" version="1.1" xlink="http://www.w3.org/1999/xlink" xmlns:svgjs="http://svgjs.com/svgjs" width="100%" height="100%" preserveAspectRatio="xMidYMid meet" viewBox="0 0 201.2519989013672 147" overflow="visible"><defs id="SvgjsDefs38573"></defs><g id="SvgjsG38574" transform="scale(0.8620406554792944)" opacity="1"><g id="SvgjsG38575" class="A2sDBbhDR" transform="translate(74.7072, 0) scale(0.8404560000000001)" light-content="false" non-strokable="false" fill="#454545"><path d="M0 0h100v100H0z"></path></g><g id="SvgjsG38576" class="rVw8pZtl9m" transform="translate(81.17270847534547, 6.462442655756854) scale(0.7111667407105822)" light-content="true" non-strokable="false" fill="#ffffff"><path d="M49 74.348v14.836c0 .55.45 1 1 1s1-.45 1-1V74.348c8.496-.422 16.215-6.106 18.195-13.574 1.063-4.012.59-8.129-.031-12.344-1.86-12.559-4.383-25.559-12.82-34.359-1.59-1.66-2.992-2.84-4.414-3.71a3.723 3.723 0 0 0-3.86 0c-1.422.87-2.824 2.05-4.414 3.71-8.437 8.8-10.96 21.801-12.82 34.359-.625 4.215-1.098 8.332-.031 12.344 1.98 7.469 9.7 13.152 18.195 13.574zM32.816 48.719c1.813-12.238 4.254-24.891 12.285-33.27 1.469-1.531 2.742-2.61 4.016-3.39a1.694 1.694 0 0 1 1.766 0c1.269.78 2.546 1.859 4.015 3.39 8.027 8.379 10.473 21.027 12.285 33.27.594 4 1.043 7.894.078 11.539-1.988 7.5-9.656 11.703-16.262 12.09V51.457l5.355-5.356a1 1 0 1 0-1.414-1.414L51 48.63V37.817c0-.551-.45-1-1-1s-1 .449-1 1v21.535l-6.543-6.543a1 1 0 1 0-1.414 1.414L49 62.18v10.172c-6.606-.39-14.273-4.594-16.262-12.09-.969-3.648-.516-7.54.078-11.543z"></path></g><g id="SvgjsG38577" class="text" transform="translate(116.7, 156.30560000000003) scale(1)" light-content="false" fill="#454545"><path d="M-81.24 -15.6C-81.24 -15.52 -81.25 -15.24 -81.27 -14.76C-81.29 -14.28 -81.31 -13.74 -81.33 -13.14C-81.35 -12.54 -81.38 -11.95 -81.42 -11.37C-81.46 -10.79 -81.5 -10.38 -81.54 -10.14C-81.46 -10.02 -81.42 -9.68 -81.42 -9.12C-81.42 -7.84 -81.47 -6.84 -81.57 -6.12C-81.67 -5.4 -81.8 -4.87 -81.96 -4.53C-82.12 -4.19 -82.31 -3.98 -82.53 -3.9C-82.75 -3.82 -82.98 -3.78 -83.22 -3.78C-84.1 -3.78 -84.54 -4.3 -84.54 -5.34C-84.54 -5.58 -84.52 -5.89 -84.48 -6.27C-84.44 -6.65 -84.4 -7.04 -84.36 -7.44C-84.32 -7.84 -84.28 -8.22 -84.24 -8.58C-84.2 -8.94 -84.18 -9.24 -84.18 -9.48C-84.18 -9.84 -84.2 -10.08 -84.24 -10.2C-84.24 -10.36 -84.22 -10.79 -84.18 -11.49C-84.14 -12.19 -84.11 -12.98 -84.09 -13.86C-84.07 -14.74 -84.05 -15.61 -84.03 -16.47C-84.01 -17.33 -84 -17.98 -84 -18.42C-84 -19.06 -84.14 -19.37 -84.42 -19.35C-84.7 -19.33 -85.06 -19.32 -85.5 -19.32C-86.34 -19.32 -87.07 -19.28 -87.69 -19.2C-88.31 -19.12 -88.89 -19.03 -89.43 -18.93C-89.97 -18.83 -90.53 -18.74 -91.11 -18.66C-91.69 -18.58 -92.34 -18.54 -93.06 -18.54C-93.26 -18.54 -93.52 -18.58 -93.84 -18.66C-94.24 -18.54 -94.74 -18.46 -95.34 -18.42C-95.94 -18.38 -96.52 -18.36 -97.08 -18.36C-97.56 -18.36 -97.93 -18.45 -98.19 -18.63C-98.45 -18.81 -98.58 -19.18 -98.58 -19.74C-98.58 -20.06 -98.46 -20.3 -98.22 -20.46L-94.8 -21.12C-94.32 -21.2 -93.89 -21.27 -93.51 -21.33C-93.13 -21.39 -92.78 -21.42 -92.46 -21.42C-92.14 -21.42 -91.9 -21.4 -91.74 -21.36C-91.66 -21.36 -91.26 -21.39 -90.54 -21.45C-89.82 -21.51 -89.02 -21.58 -88.14 -21.66C-87.26 -21.74 -86.42 -21.82 -85.62 -21.9C-84.82 -21.98 -84.28 -22.06 -84 -22.14C-84 -23.46 -84.06 -24.46 -84.18 -25.14C-84.3 -25.82 -84.36 -26.36 -84.36 -26.76L-84.36 -27.54C-84.36 -28.46 -84.43 -29.28 -84.57 -30C-84.71 -30.72 -84.78 -31.36 -84.78 -31.92C-84.78 -32.36 -84.63 -32.67 -84.33 -32.85C-84.03 -33.03 -83.72 -33.12 -83.4 -33.12C-82.92 -33.12 -82.56 -32.98 -82.32 -32.7L-81.84 -30.3C-81.76 -29.9 -81.7 -29.55 -81.66 -29.25C-81.62 -28.95 -81.6 -28.68 -81.6 -28.44C-81.6 -28.12 -81.62 -27.9 -81.66 -27.78C-81.5 -27.18 -81.42 -26.24 -81.42 -24.96C-81.38 -24.12 -81.35 -23.55 -81.33 -23.25C-81.31 -22.95 -81.3 -22.75 -81.3 -22.65L-81.3 -22.44L-81.3 -21.96L-81.3 -21.27C-81.3 -21.01 -81.34 -20.74 -81.42 -20.46C-81.34 -20.22 -81.28 -19.95 -81.24 -19.65C-81.2 -19.35 -81.18 -18.98 -81.18 -18.54L-81.18 -16.74C-81.18 -16.26 -81.2 -15.88 -81.24 -15.6ZM-100.86 -15.24C-100.86 -15.2 -100.85 -15.17 -100.83 -15.15C-100.81 -15.13 -100.8 -15.1 -100.8 -15.06C-100.8 -14.78 -100.95 -14.5 -101.25 -14.22C-101.55 -13.94 -101.8 -13.76 -102 -13.68C-102.44 -13.8 -102.82 -14.01 -103.14 -14.31C-103.46 -14.61 -103.81 -14.97 -104.19 -15.39C-104.57 -15.81 -105 -16.27 -105.48 -16.77C-105.96 -17.27 -106.58 -17.8 -107.34 -18.36C-107.5 -18.4 -107.59 -18.43 -107.61 -18.45C-107.63 -18.47 -107.67 -18.54 -107.73 -18.66C-107.79 -18.78 -107.91 -18.96 -108.09 -19.2C-108.27 -19.44 -108.58 -19.82 -109.02 -20.34C-109.58 -19.58 -110.1 -18.88 -110.58 -18.24C-111.06 -17.6 -111.4 -17.12 -111.6 -16.8C-112.04 -16.44 -112.43 -15.98 -112.77 -15.42C-113.11 -14.86 -113.43 -14.32 -113.73 -13.8C-114.03 -13.28 -114.32 -12.83 -114.6 -12.45C-114.88 -12.07 -115.16 -11.88 -115.44 -11.88C-115.76 -11.88 -116.03 -11.99 -116.25 -12.21C-116.47 -12.43 -116.62 -12.64 -116.7 -12.84C-116.62 -13.4 -116.46 -13.94 -116.22 -14.46C-115.98 -14.98 -115.7 -15.47 -115.38 -15.93C-115.06 -16.39 -114.74 -16.82 -114.42 -17.22C-114.1 -17.62 -113.82 -17.98 -113.58 -18.3C-113.46 -18.42 -113.28 -18.67 -113.04 -19.05C-112.8 -19.43 -112.53 -19.83 -112.23 -20.25C-111.93 -20.67 -111.64 -21.06 -111.36 -21.42C-111.08 -21.78 -110.86 -22 -110.7 -22.08C-109.82 -23.36 -109.17 -24.32 -108.75 -24.96C-108.33 -25.6 -108.03 -26.04 -107.85 -26.28C-107.67 -26.52 -107.56 -26.63 -107.52 -26.61C-107.48 -26.59 -107.36 -26.58 -107.16 -26.58C-106.88 -26.58 -106.56 -26.49 -106.2 -26.31C-105.84 -26.13 -105.54 -25.84 -105.3 -25.44C-105.46 -24.96 -105.78 -24.4 -106.26 -23.76C-106.74 -23.12 -107.14 -22.58 -107.46 -22.14C-106.9 -21.46 -106.49 -20.94 -106.23 -20.58C-105.97 -20.22 -105.54 -19.84 -104.94 -19.44C-104.5 -18.76 -104.09 -18.28 -103.71 -18C-103.33 -17.72 -102.98 -17.49 -102.66 -17.31C-102.34 -17.13 -102.03 -16.9 -101.73 -16.62C-101.43 -16.34 -101.14 -15.88 -100.86 -15.24Z M-22.86 -15.66C-23.22 -15.58 -23.66 -15.48 -24.18 -15.36C-24.7 -15.24 -25.24 -15.13 -25.8 -15.03C-26.36 -14.93 -26.9 -14.85 -27.42 -14.79C-27.94 -14.73 -28.36 -14.7 -28.68 -14.7L-29.22 -14.7L-32.58 -14.34C-34.34 -14.18 -35.62 -14 -36.42 -13.8C-36.46 -13.04 -36.52 -12.15 -36.6 -11.13C-36.68 -10.11 -36.78 -8.92 -36.9 -7.56L-37.38 -2.4C-37.62 -1.92 -38.06 -1.68 -38.7 -1.68C-39.02 -1.68 -39.28 -1.74 -39.48 -1.86C-39.68 -1.98 -39.78 -2.3 -39.78 -2.82C-39.78 -3.18 -39.75 -3.64 -39.69 -4.2C-39.63 -4.76 -39.56 -5.32 -39.48 -5.88C-39.4 -6.44 -39.33 -6.94 -39.27 -7.38C-39.21 -7.82 -39.16 -8.12 -39.12 -8.28C-39.24 -8.64 -39.3 -9.18 -39.3 -9.9C-39.3 -10.62 -39.27 -11.35 -39.21 -12.09C-39.15 -12.83 -39.12 -13.28 -39.12 -13.44L-39.12 -13.68C-39.12 -13.92 -39.11 -14.3 -39.09 -14.82L-39.03 -16.38C-39.01 -16.9 -38.99 -17.39 -38.97 -17.85C-38.95 -18.31 -38.94 -18.6 -38.94 -18.72C-38.94 -18.84 -38.96 -19.14 -39 -19.62C-39.04 -20.1 -39.09 -20.63 -39.15 -21.21C-39.21 -21.79 -39.26 -22.37 -39.3 -22.95C-39.34 -23.53 -39.36 -23.98 -39.36 -24.3C-39.36 -24.78 -39.34 -25.1 -39.3 -25.26C-39.5 -25.66 -39.68 -26.44 -39.84 -27.6C-40.04 -28.68 -40.19 -29.34 -40.29 -29.58C-40.39 -29.82 -40.44 -30.06 -40.44 -30.3C-40.44 -30.9 -40.04 -31.2 -39.24 -31.2C-38.52 -31.2 -37.96 -31 -37.56 -30.6C-37.08 -29.12 -36.77 -27.63 -36.63 -26.13C-36.49 -24.63 -36.42 -23.34 -36.42 -22.26C-36.42 -21.86 -36.44 -21.6 -36.48 -21.48C-36.4 -21.08 -36.36 -20.36 -36.36 -19.32L-36.36 -16.68L-35.22 -16.68C-34.38 -16.68 -33.66 -16.72 -33.06 -16.8C-32.46 -16.88 -31.9 -16.96 -31.38 -17.04L-29.82 -17.28C-29.3 -17.36 -28.7 -17.4 -28.02 -17.4C-27.62 -17.4 -27.34 -17.38 -27.18 -17.34C-26.86 -17.42 -26.45 -17.49 -25.95 -17.55C-25.45 -17.61 -24.96 -17.64 -24.48 -17.64C-23.96 -17.64 -23.5 -17.58 -23.1 -17.46C-22.7 -17.34 -22.5 -16.96 -22.5 -16.32C-22.5 -16.04 -22.62 -15.82 -22.86 -15.66ZM-52.5 -26.52C-52.5 -26.44 -52.49 -26.35 -52.47 -26.25C-52.45 -26.15 -52.44 -26.06 -52.44 -25.98C-52.48 -24.58 -52.7 -23.41 -53.1 -22.47C-53.5 -21.53 -54 -20.88 -54.6 -20.52C-55.04 -20.24 -55.67 -19.93 -56.49 -19.59C-57.31 -19.25 -57.94 -19.08 -58.38 -19.08C-58.46 -19.08 -58.54 -19.09 -58.62 -19.11C-58.7 -19.13 -59.02 -19.14 -59.58 -19.14L-60.84 -19.14C-61.68 -19.14 -62.14 -19.28 -62.22 -19.56C-63.02 -20.32 -63.63 -20.97 -64.05 -21.51C-64.47 -22.05 -64.78 -22.51 -64.98 -22.89C-65.18 -23.27 -65.3 -23.61 -65.34 -23.91C-65.38 -24.21 -65.4 -24.52 -65.4 -24.84C-65.4 -26.04 -65.18 -27.08 -64.74 -27.96C-64.3 -28.84 -63.78 -29.57 -63.18 -30.15C-62.58 -30.73 -61.97 -31.15 -61.35 -31.41C-60.73 -31.67 -60.26 -31.8 -59.94 -31.8C-59.18 -31.8 -58.38 -31.68 -57.54 -31.44C-56.7 -31.2 -55.84 -30.92 -54.96 -30.6C-54.72 -30.32 -54.46 -29.99 -54.18 -29.61C-53.9 -29.23 -53.64 -28.85 -53.4 -28.47C-53.16 -28.09 -52.95 -27.73 -52.77 -27.39C-52.59 -27.05 -52.5 -26.8 -52.5 -26.64ZM-44.82 -6.06C-44.94 -6.02 -45.2 -6 -45.6 -6C-45.92 -6 -46.31 -6.02 -46.77 -6.06C-47.23 -6.1 -47.69 -6.15 -48.15 -6.21C-48.61 -6.27 -49.03 -6.33 -49.41 -6.39C-49.79 -6.45 -50.06 -6.5 -50.22 -6.54C-50.38 -6.5 -50.6 -6.48 -50.88 -6.48C-51.32 -6.48 -51.81 -6.53 -52.35 -6.63C-52.89 -6.73 -53.64 -6.78 -54.6 -6.78C-54.88 -6.78 -55.12 -6.77 -55.32 -6.75C-55.52 -6.73 -55.9 -6.72 -56.46 -6.72C-57.22 -6.72 -58.04 -6.76 -58.92 -6.84C-59.8 -6.92 -60.36 -7 -60.6 -7.08C-60.96 -6.96 -61.66 -6.85 -62.7 -6.75C-63.74 -6.65 -64.92 -6.6 -66.24 -6.6C-67.24 -6.6 -68.1 -6.66 -68.82 -6.78C-68.98 -6.7 -69.48 -6.63 -70.32 -6.57C-71.16 -6.51 -71.94 -6.48 -72.66 -6.48C-73.3 -6.48 -73.75 -6.63 -74.01 -6.93C-74.27 -7.23 -74.4 -7.54 -74.4 -7.86C-74.4 -8.3 -74.24 -8.62 -73.92 -8.82C-73.6 -9.02 -73 -9.12 -72.12 -9.12C-71.88 -9.12 -71.61 -9.11 -71.31 -9.09C-71.01 -9.07 -70.74 -9.06 -70.5 -9.06C-70.02 -9.06 -69.69 -9.07 -69.51 -9.09C-69.33 -9.11 -69.1 -9.13 -68.82 -9.15C-68.54 -9.17 -68.12 -9.19 -67.56 -9.21C-67 -9.23 -66.12 -9.26 -64.92 -9.3L-60.42 -9.48C-60.42 -9.76 -60.41 -10 -60.39 -10.2C-60.37 -10.4 -60.36 -10.6 -60.36 -10.8C-60.36 -11.4 -60.4 -11.79 -60.48 -11.97C-60.56 -12.15 -60.6 -12.46 -60.6 -12.9C-60.6 -12.98 -60.59 -13.06 -60.57 -13.14C-60.55 -13.22 -60.54 -13.3 -60.54 -13.38C-60.66 -13.74 -60.72 -14.2 -60.72 -14.76C-60.72 -15.52 -60.63 -16.14 -60.45 -16.62C-60.27 -17.1 -59.78 -17.34 -58.98 -17.34C-58.74 -17.34 -58.55 -17.24 -58.41 -17.04C-58.27 -16.84 -58.16 -16.59 -58.08 -16.29C-58 -15.99 -57.95 -15.67 -57.93 -15.33C-57.91 -14.99 -57.9 -14.68 -57.9 -14.4L-57.9 -14.01C-57.9 -13.87 -57.92 -13.72 -57.96 -13.56C-57.92 -13.04 -57.91 -12.42 -57.93 -11.7C-57.95 -10.98 -57.86 -10.24 -57.66 -9.48C-55.5 -9.44 -53.78 -9.37 -52.5 -9.27C-51.22 -9.17 -50.16 -9.06 -49.32 -8.94C-48.48 -8.82 -47.76 -8.7 -47.16 -8.58C-46.56 -8.46 -45.86 -8.34 -45.06 -8.22C-44.62 -7.98 -44.4 -7.58 -44.4 -7.02C-44.4 -6.66 -44.54 -6.34 -44.82 -6.06ZM-55.14 -24.24L-55.14 -24.48C-55.14 -25.68 -55.27 -26.6 -55.53 -27.24C-55.79 -27.88 -56.14 -28.34 -56.58 -28.62C-57.02 -28.9 -57.51 -29.06 -58.05 -29.1C-58.59 -29.14 -59.16 -29.18 -59.76 -29.22C-60.8 -28.94 -61.57 -28.34 -62.07 -27.42C-62.57 -26.5 -62.82 -25.58 -62.82 -24.66C-62.82 -23.9 -62.64 -23.31 -62.28 -22.89C-61.92 -22.47 -61.51 -22.16 -61.05 -21.96C-60.59 -21.76 -60.15 -21.64 -59.73 -21.6C-59.31 -21.56 -59.04 -21.54 -58.92 -21.54C-58.36 -21.54 -57.85 -21.67 -57.39 -21.93C-56.93 -22.19 -56.54 -22.49 -56.22 -22.83C-55.9 -23.17 -55.64 -23.48 -55.44 -23.76C-55.24 -24.04 -55.14 -24.2 -55.14 -24.24Z M13.98 -26.7C14.02 -26.5 14.05 -26.31 14.07 -26.13C14.09 -25.95 14.1 -25.74 14.1 -25.5C14.1 -24.94 14.06 -24.36 13.98 -23.76C13.9 -23.16 13.82 -22.7 13.74 -22.38L13.74 -21.9C13.74 -21.54 13.72 -21.09 13.68 -20.55C13.64 -20.01 13.56 -19.49 13.44 -18.99C13.32 -18.49 13.16 -18.06 12.96 -17.7C12.76 -17.34 12.52 -17.16 12.24 -17.16C11.8 -17.16 11.48 -17.33 11.28 -17.67C11.08 -18.01 10.98 -18.34 10.98 -18.66C10.98 -19.22 11.01 -19.65 11.07 -19.95C11.13 -20.25 11.21 -20.61 11.31 -21.03C11.41 -21.45 11.49 -22.01 11.55 -22.71C11.61 -23.41 11.64 -24.42 11.64 -25.74C11.64 -26.22 11.62 -26.6 11.58 -26.88C11.54 -27.16 11.52 -27.58 11.52 -28.14C11.52 -28.46 11.54 -28.8 11.58 -29.16C11.62 -29.52 11.7 -29.92 11.82 -30.36C11.7 -30.64 11.61 -30.98 11.55 -31.38C11.49 -31.78 11.45 -32.18 11.43 -32.58C11.41 -32.98 11.38 -33.36 11.34 -33.72C11.3 -34.08 11.26 -34.38 11.22 -34.62C11.02 -35.54 10.92 -36.38 10.92 -37.14C10.92 -37.7 11.05 -38.07 11.31 -38.25C11.57 -38.43 11.92 -38.52 12.36 -38.52C12.68 -38.52 12.98 -38.42 13.26 -38.22C13.42 -37.38 13.57 -36.56 13.71 -35.76C13.85 -34.96 13.92 -34.22 13.92 -33.54L13.92 -32.85C13.92 -32.63 13.88 -32.42 13.8 -32.22C13.92 -31.74 14 -31.27 14.04 -30.81C14.08 -30.35 14.1 -29.9 14.1 -29.46C14.1 -28.98 14.08 -28.51 14.04 -28.05C14 -27.59 13.98 -27.14 13.98 -26.7ZM-2.4 -22.98C-2.36 -22.9 -2.34 -22.82 -2.34 -22.74C-2.34 -22.42 -2.49 -22.14 -2.79 -21.9C-3.09 -21.66 -3.34 -21.5 -3.54 -21.42C-3.98 -21.54 -4.37 -21.77 -4.71 -22.11C-5.05 -22.45 -5.41 -22.83 -5.79 -23.25C-6.17 -23.67 -6.6 -24.12 -7.08 -24.6C-7.56 -25.08 -8.16 -25.54 -8.88 -25.98C-9.04 -26.02 -9.14 -26.04 -9.18 -26.04C-9.22 -26.04 -9.27 -26.1 -9.33 -26.22C-9.39 -26.34 -9.51 -26.52 -9.69 -26.76C-9.87 -27 -10.18 -27.38 -10.62 -27.9C-11.18 -27.18 -11.7 -26.5 -12.18 -25.86C-12.66 -25.22 -13 -24.74 -13.2 -24.42C-13.6 -24.06 -13.97 -23.62 -14.31 -23.1C-14.65 -22.58 -14.97 -22.06 -15.27 -21.54C-15.57 -21.02 -15.86 -20.58 -16.14 -20.22C-16.42 -19.86 -16.68 -19.68 -16.92 -19.68C-17.24 -19.68 -17.53 -19.78 -17.79 -19.98C-18.05 -20.18 -18.22 -20.38 -18.3 -20.58C-18.14 -21.74 -17.7 -22.75 -16.98 -23.61C-16.26 -24.47 -15.64 -25.24 -15.12 -25.92L-14.64 -26.64C-14.4 -27 -14.13 -27.39 -13.83 -27.81C-13.53 -28.23 -13.24 -28.62 -12.96 -28.98C-12.68 -29.34 -12.46 -29.56 -12.3 -29.64C-11.42 -30.88 -10.77 -31.81 -10.35 -32.43C-9.93 -33.05 -9.63 -33.48 -9.45 -33.72C-9.27 -33.96 -9.15 -34.08 -9.09 -34.08L-8.76 -34.08C-8.44 -34.08 -8.1 -33.98 -7.74 -33.78C-7.38 -33.58 -7.08 -33.28 -6.84 -32.88C-7 -32.44 -7.32 -31.91 -7.8 -31.29C-8.28 -30.67 -8.68 -30.14 -9 -29.7C-8.44 -29.02 -8.03 -28.51 -7.77 -28.17C-7.51 -27.83 -7.08 -27.46 -6.48 -27.06C-6.08 -26.34 -5.68 -25.85 -5.28 -25.59C-4.88 -25.33 -4.51 -25.11 -4.17 -24.93C-3.83 -24.75 -3.51 -24.54 -3.21 -24.3C-2.91 -24.06 -2.64 -23.62 -2.4 -22.98ZM11.76 11.1C11.88 11.3 11.94 11.54 11.94 11.82C11.94 12.46 11.78 12.94 11.46 13.26C11.14 13.26 10.61 13.31 9.87 13.41C9.13 13.51 8.28 13.62 7.32 13.74C6.36 13.86 5.34 13.97 4.26 14.07C3.18 14.17 2.18 14.22 1.26 14.22L0.24 14.22C-0.4 14.22 -1.21 14.2 -2.19 14.16C-3.17 14.12 -4.28 14.08 -5.52 14.04C-6.76 14 -8 13.92 -9.24 13.8C-9.48 13.8 -9.76 13.72 -10.08 13.56C-10.4 13.4 -10.71 13.2 -11.01 12.96C-11.31 12.72 -11.57 12.43 -11.79 12.09C-12.01 11.75 -12.12 11.4 -12.12 11.04C-12.12 10.84 -12.06 10.34 -11.94 9.54C-11.82 8.74 -11.66 7.68 -11.46 6.36L-10.86 1.68C-11.02 1.52 -11.1 1.32 -11.1 1.08C-11.1 0.36 -10.96 -0.15 -10.68 -0.45C-10.4 -0.75 -10.03 -0.95 -9.57 -1.05C-9.11 -1.15 -8.61 -1.2 -8.07 -1.2C-7.53 -1.2 -7.02 -1.26 -6.54 -1.38C-5.98 -1.38 -5.29 -1.43 -4.47 -1.53C-3.65 -1.63 -2.9 -1.68 -2.22 -1.68L-1.68 -1.68C-1.52 -1.68 -1.36 -1.66 -1.2 -1.62C-1.04 -1.7 -0.72 -1.76 -0.24 -1.8C0.24 -1.84 0.77 -1.87 1.35 -1.89C1.93 -1.91 2.48 -1.92 3 -1.92C3.52 -1.92 3.94 -1.94 4.26 -1.98C4.62 -2.62 4.93 -3.35 5.19 -4.17C5.45 -4.99 5.58 -5.94 5.58 -7.02C5.14 -7.06 4.59 -7.12 3.93 -7.2C3.27 -7.28 2.63 -7.37 2.01 -7.47C1.39 -7.57 0.85 -7.67 0.39 -7.77C-0.07 -7.87 -0.32 -7.92 -0.36 -7.92C-0.44 -7.92 -0.74 -7.93 -1.26 -7.95C-1.78 -7.97 -2.36 -8.03 -3 -8.13C-3.64 -8.23 -4.21 -8.38 -4.71 -8.58C-5.21 -8.78 -5.46 -9.04 -5.46 -9.36C-5.46 -9.6 -5.41 -9.86 -5.31 -10.14C-5.21 -10.42 -5.06 -10.66 -4.86 -10.86C-3.54 -10.78 -2.29 -10.61 -1.11 -10.35C0.07 -10.09 1.46 -9.96 3.06 -9.96C3.38 -9.96 3.6 -9.98 3.72 -10.02C4.12 -9.98 4.68 -9.86 5.4 -9.66C6.12 -9.46 6.86 -9.26 7.62 -9.06C7.9 -8.7 8.1 -8.27 8.22 -7.77C8.34 -7.27 8.42 -6.88 8.46 -6.6L7.86 -3.48C7.66 -2.44 7.28 -1.4 6.72 -0.36L3.84 0.36L0.6 0.36C-0.32 0.36 -1.11 0.38 -1.77 0.42C-2.43 0.46 -3.06 0.52 -3.66 0.6C-4.26 0.68 -4.85 0.76 -5.43 0.84C-6.01 0.92 -6.66 1.02 -7.38 1.14C-7.58 1.42 -7.78 1.77 -7.98 2.19C-8.18 2.61 -8.32 3.14 -8.4 3.78L-8.82 6.3C-8.86 6.74 -8.91 7.27 -8.97 7.89C-9.03 8.51 -9.06 9.16 -9.06 9.84L-9.06 10.65C-9.06 10.91 -9.02 11.16 -8.94 11.4C-8.82 11.4 -8.44 11.42 -7.8 11.46C-7.16 11.5 -6.39 11.54 -5.49 11.58C-4.59 11.62 -3.63 11.66 -2.61 11.7C-1.59 11.74 -0.68 11.76 0.12 11.76L1.35 11.76C1.69 11.76 1.98 11.72 2.22 11.64L2.94 11.64C3.46 11.64 3.97 11.62 4.47 11.58C4.97 11.54 5.76 11.48 6.84 11.4L9.18 11.04C9.42 11 9.64 10.97 9.84 10.95C10.04 10.93 10.24 10.92 10.44 10.92C11 10.92 11.44 10.98 11.76 11.1Z M56.4 -33C56.76 -32.8 56.94 -32.5 56.94 -32.1C56.94 -31.74 56.7 -31.41 56.22 -31.11C55.74 -30.81 55.1 -30.56 54.3 -30.36C53.5 -30.16 52.56 -30.01 51.48 -29.91C50.4 -29.81 49.26 -29.76 48.06 -29.76C47.62 -29.76 47.16 -29.81 46.68 -29.91C46.2 -30.01 45.68 -30.1 45.12 -30.18C45 -30.1 44.8 -30.06 44.52 -30.06C43.6 -30.06 42.91 -30.36 42.45 -30.96C41.99 -31.56 41.76 -32.3 41.76 -33.18C41.76 -34.18 41.81 -35.08 41.91 -35.88C42.01 -36.68 42.1 -37.56 42.18 -38.52L42.18 -38.88C42.18 -40 42.24 -40.85 42.36 -41.43C42.48 -42.01 42.63 -42.44 42.81 -42.72C42.99 -43 43.17 -43.16 43.35 -43.2C43.53 -43.24 43.66 -43.26 43.74 -43.26C43.98 -43.26 44.21 -43.2 44.43 -43.08C44.65 -42.96 44.92 -42.8 45.24 -42.6C45.24 -41.68 45.2 -40.87 45.12 -40.17C45.04 -39.47 44.96 -38.84 44.88 -38.28C44.8 -37.72 44.72 -37.2 44.64 -36.72C44.56 -36.24 44.52 -35.74 44.52 -35.22C44.52 -34.78 44.54 -34.35 44.58 -33.93C44.62 -33.51 44.7 -33.02 44.82 -32.46C45.02 -32.5 45.21 -32.52 45.39 -32.52L45.96 -32.52C46.76 -32.52 47.58 -32.46 48.42 -32.34C49.26 -32.22 50.04 -32.16 50.76 -32.16C51.32 -32.16 51.81 -32.19 52.23 -32.25C52.65 -32.31 53.05 -32.38 53.43 -32.46C53.81 -32.54 54.23 -32.63 54.69 -32.73C55.15 -32.83 55.72 -32.92 56.4 -33ZM67.44 -14.16C67.32 -14.12 67.04 -14.1 66.6 -14.1C66.28 -14.1 65.88 -14.12 65.4 -14.16C64.92 -14.2 64.45 -14.24 63.99 -14.28C63.53 -14.32 63.11 -14.37 62.73 -14.43C62.35 -14.49 62.08 -14.56 61.92 -14.64C61.76 -14.6 61.5 -14.58 61.14 -14.58C60.5 -14.58 59.71 -14.63 58.77 -14.73C57.83 -14.83 56.8 -14.88 55.68 -14.88C55.36 -14.88 55.1 -14.87 54.9 -14.85C54.7 -14.83 54.24 -14.82 53.52 -14.82C53 -14.82 52.44 -14.83 51.84 -14.85C51.24 -14.87 50.66 -14.9 50.1 -14.94C49.54 -14.98 49.04 -15.03 48.6 -15.09C48.16 -15.15 47.88 -15.2 47.76 -15.24C47.44 -15.16 46.73 -15.06 45.63 -14.94C44.53 -14.82 43.4 -14.76 42.24 -14.76C41.8 -14.76 41.48 -14.77 41.28 -14.79C41.08 -14.81 40.88 -14.82 40.68 -14.82C40.48 -14.82 40.13 -14.8 39.63 -14.76C39.13 -14.72 38.6 -14.7 38.04 -14.7C37.32 -14.7 36.72 -14.76 36.24 -14.88C36.16 -14.84 35.98 -14.8 35.7 -14.76C35.42 -14.72 35.09 -14.69 34.71 -14.67C34.33 -14.65 33.93 -14.63 33.51 -14.61C33.09 -14.59 32.7 -14.58 32.34 -14.58C31.7 -14.58 31.25 -14.73 30.99 -15.03C30.73 -15.33 30.6 -15.64 30.6 -15.96C30.6 -16.4 30.77 -16.71 31.11 -16.89C31.45 -17.07 32.04 -17.16 32.88 -17.16C33.12 -17.16 33.39 -17.15 33.69 -17.13C33.99 -17.11 34.28 -17.1 34.56 -17.1C35.24 -17.1 35.8 -17.16 36.24 -17.28C36.2 -17.28 36.45 -17.28 36.99 -17.28C37.53 -17.28 38.21 -17.29 39.03 -17.31C39.85 -17.33 40.75 -17.35 41.73 -17.37C42.71 -17.39 43.64 -17.41 44.52 -17.43C45.4 -17.45 46.15 -17.47 46.77 -17.49C47.39 -17.51 47.76 -17.52 47.88 -17.52C47.88 -17.8 47.89 -18.05 47.91 -18.27C47.93 -18.49 47.94 -18.7 47.94 -18.9C47.94 -19.5 47.92 -19.98 47.88 -20.34C47.84 -20.7 47.8 -21.05 47.76 -21.39C47.72 -21.73 47.68 -22.08 47.64 -22.44C47.6 -22.8 47.58 -23.26 47.58 -23.82C47.58 -24.66 47.67 -25.31 47.85 -25.77C48.03 -26.23 48.52 -26.46 49.32 -26.46C49.8 -26.46 50.11 -26.06 50.25 -25.26C50.39 -24.46 50.46 -23.7 50.46 -22.98C50.46 -22.58 50.44 -22.3 50.4 -22.14L50.4 -21.78L50.4 -20.1C50.4 -19.66 50.41 -19.21 50.43 -18.75C50.45 -18.29 50.52 -17.88 50.64 -17.52C51.28 -17.48 52.16 -17.45 53.28 -17.43C54.4 -17.41 55.6 -17.38 56.88 -17.34C58.16 -17.3 59.45 -17.24 60.75 -17.16C62.05 -17.08 63.23 -16.95 64.29 -16.77C65.35 -16.59 66.21 -16.37 66.87 -16.11C67.53 -15.85 67.86 -15.52 67.86 -15.12C67.86 -14.76 67.72 -14.44 67.44 -14.16ZM55.86 -0.72L55.86 -0.6C55.86 -0.4 55.78 -0.13 55.62 0.21C55.46 0.55 55.25 0.9 54.99 1.26C54.73 1.62 54.46 1.99 54.18 2.37C53.9 2.75 53.64 3.08 53.4 3.36C52.52 3.68 51.65 3.96 50.79 4.2C49.93 4.44 49.12 4.56 48.36 4.56C47.76 4.56 47.25 4.45 46.83 4.23C46.41 4.01 45.84 3.54 45.12 2.82C44.56 2.26 44.12 1.74 43.8 1.26C43.48 0.78 43.25 0.32 43.11 -0.12C42.97 -0.56 42.89 -1 42.87 -1.44C42.85 -1.88 42.84 -2.34 42.84 -2.82C42.84 -3.18 42.85 -3.51 42.87 -3.81C42.89 -4.11 42.96 -4.41 43.08 -4.71C43.2 -5.01 43.39 -5.35 43.65 -5.73C43.91 -6.11 44.3 -6.56 44.82 -7.08C45.26 -7.52 45.56 -7.86 45.72 -8.1C45.88 -8.34 46.02 -8.51 46.14 -8.61C46.26 -8.71 46.4 -8.76 46.56 -8.76L47.46 -8.76C47.66 -8.76 47.88 -8.75 48.12 -8.73C48.36 -8.71 48.56 -8.7 48.72 -8.7C49.28 -8.7 49.6 -8.72 49.68 -8.76C49.76 -8.8 49.84 -8.82 49.92 -8.82C50.12 -8.86 50.36 -8.83 50.64 -8.73C50.92 -8.63 51.26 -8.5 51.66 -8.34C52.3 -8.06 52.89 -7.79 53.43 -7.53C53.97 -7.27 54.42 -6.91 54.78 -6.45C55.14 -5.99 55.42 -5.36 55.62 -4.56C55.82 -3.76 55.92 -2.7 55.92 -1.38C55.92 -1.26 55.91 -1.14 55.89 -1.02C55.87 -0.9 55.86 -0.8 55.86 -0.72ZM53.22 -3.72C53.22 -3.76 53.12 -3.93 52.92 -4.23C52.72 -4.53 52.46 -4.84 52.14 -5.16C51.82 -5.48 51.43 -5.77 50.97 -6.03C50.51 -6.29 50.02 -6.42 49.5 -6.42C49.38 -6.42 49.1 -6.38 48.66 -6.3C48.22 -6.22 47.76 -6.05 47.28 -5.79C46.8 -5.53 46.37 -5.16 45.99 -4.68C45.61 -4.2 45.42 -3.56 45.42 -2.76C45.42 -1.8 45.67 -0.83 46.17 0.15C46.67 1.13 47.46 1.76 48.54 2.04C49.18 2 49.77 1.94 50.31 1.86C50.85 1.78 51.28 1.66 51.6 1.5C51.84 1.42 52.06 1.16 52.26 0.72C52.46 0.28 52.63 -0.21 52.77 -0.75C52.91 -1.29 53.02 -1.82 53.1 -2.34C53.18 -2.86 53.22 -3.24 53.22 -3.48Z M116.64 -17.52C116.6 -17.32 116.58 -16.56 116.58 -15.24L116.58 -14.34C116.58 -13.94 116.57 -13.58 116.55 -13.26C116.53 -12.94 116.5 -12.66 116.46 -12.42C116.5 -12.3 116.52 -12.06 116.52 -11.7C116.52 -10.82 116.47 -10.12 116.37 -9.6C116.27 -9.08 116.14 -8.67 115.98 -8.37C115.82 -8.07 115.63 -7.87 115.41 -7.77C115.19 -7.67 114.98 -7.62 114.78 -7.62C114.42 -7.62 114.12 -7.75 113.88 -8.01C113.64 -8.27 113.52 -8.62 113.52 -9.06C113.52 -9.42 113.59 -9.9 113.73 -10.5C113.87 -11.1 113.94 -11.56 113.94 -11.88C113.94 -12.16 113.92 -12.36 113.88 -12.48C113.88 -12.8 113.9 -13.24 113.94 -13.8C113.98 -14.36 114 -14.96 114 -15.6C114 -15.92 113.97 -16.1 113.91 -16.14C113.85 -16.18 113.66 -16.2 113.34 -16.2C112.34 -16.2 111.39 -16.06 110.49 -15.78C109.59 -15.5 108.8 -15.36 108.12 -15.36C107.92 -15.36 107.66 -15.4 107.34 -15.48C107.06 -15.4 106.62 -15.34 106.02 -15.3C105.42 -15.26 104.84 -15.24 104.28 -15.24C103.8 -15.24 103.42 -15.32 103.14 -15.48C102.86 -15.64 102.72 -16 102.72 -16.56C102.72 -16.84 102.98 -17.09 103.5 -17.31C104.02 -17.53 104.61 -17.71 105.27 -17.85C105.93 -17.99 106.58 -18.09 107.22 -18.15C107.86 -18.21 108.32 -18.24 108.6 -18.24L109.23 -18.3C109.65 -18.34 110.14 -18.39 110.7 -18.45C111.26 -18.51 111.85 -18.59 112.47 -18.69C113.09 -18.79 113.6 -18.88 114 -18.96L114 -20.16C114 -20.64 113.99 -21.28 113.97 -22.08C113.95 -22.88 113.92 -23.69 113.88 -24.51C113.84 -25.33 113.81 -26.1 113.79 -26.82C113.77 -27.54 113.76 -28.06 113.76 -28.38C113.76 -28.74 113.77 -28.99 113.79 -29.13C113.81 -29.27 113.82 -29.46 113.82 -29.7C113.82 -30.14 113.79 -30.71 113.73 -31.41C113.67 -32.11 113.61 -32.82 113.55 -33.54C113.49 -34.26 113.43 -34.94 113.37 -35.58C113.31 -36.22 113.28 -36.72 113.28 -37.08C113.28 -38 113.72 -38.46 114.6 -38.46C115 -38.46 115.32 -38.32 115.56 -38.04L116.04 -35.7C116.2 -35.02 116.28 -34.4 116.28 -33.84C116.28 -33.52 116.26 -33.3 116.22 -33.18C116.38 -32.58 116.46 -31.66 116.46 -30.42C116.5 -29.7 116.53 -29.17 116.55 -28.83L116.61 -27.81C116.63 -27.47 116.65 -27.06 116.67 -26.58C116.69 -26.1 116.7 -25.36 116.7 -24.36C116.7 -23.8 116.66 -23.32 116.58 -22.92C116.7 -22.48 116.76 -21.86 116.76 -21.06C116.76 -20.26 116.75 -19.55 116.73 -18.93C116.71 -18.31 116.68 -17.84 116.64 -17.52ZM95.22 -36.78C95.22 -36.7 95.23 -36.61 95.25 -36.51C95.27 -36.41 95.28 -36.3 95.28 -36.18C95.28 -34.78 95.08 -33.63 94.68 -32.73C94.28 -31.83 93.76 -31.22 93.12 -30.9C92.88 -30.78 92.59 -30.64 92.25 -30.48C91.91 -30.32 91.56 -30.16 91.2 -30C90.84 -29.84 90.5 -29.71 90.18 -29.61C89.86 -29.51 89.58 -29.46 89.34 -29.46C89.26 -29.46 89.16 -29.47 89.04 -29.49C88.92 -29.51 88.6 -29.52 88.08 -29.52L86.7 -29.52C85.9 -29.52 85.48 -29.64 85.44 -29.88C84.64 -30.72 84.02 -31.4 83.58 -31.92C83.14 -32.44 82.82 -32.88 82.62 -33.24C82.42 -33.6 82.31 -33.92 82.29 -34.2C82.27 -34.48 82.26 -34.8 82.26 -35.16C82.26 -36.44 82.5 -37.51 82.98 -38.37C83.46 -39.23 84.01 -39.93 84.63 -40.47C85.25 -41.01 85.86 -41.4 86.46 -41.64C87.06 -41.88 87.5 -42 87.78 -42C88.54 -42 89.34 -41.88 90.18 -41.64C91.02 -41.4 91.9 -41.12 92.82 -40.8C93.02 -40.56 93.26 -40.26 93.54 -39.9C93.82 -39.54 94.08 -39.16 94.32 -38.76C94.56 -38.36 94.77 -37.99 94.95 -37.65C95.13 -37.31 95.22 -37.06 95.22 -36.9ZM103.02 -24.3C103.3 -24.06 103.44 -23.76 103.44 -23.4C103.44 -22.96 103.18 -22.61 102.66 -22.35C102.14 -22.09 101.33 -21.88 100.23 -21.72C99.13 -21.56 97.7 -21.44 95.94 -21.36C94.18 -21.28 92.06 -21.18 89.58 -21.06C89.5 -20.66 89.41 -20.22 89.31 -19.74C89.21 -19.26 89.12 -18.74 89.04 -18.18L88.8 -15.84C88.76 -15.32 88.71 -14.75 88.65 -14.13C88.59 -13.51 88.49 -12.94 88.35 -12.42C88.21 -11.9 88.02 -11.46 87.78 -11.1C87.54 -10.74 87.24 -10.56 86.88 -10.56C86.44 -10.56 86.12 -10.62 85.92 -10.74C85.72 -10.86 85.62 -11.12 85.62 -11.52C85.62 -12.84 85.67 -13.85 85.77 -14.55C85.87 -15.25 85.99 -15.86 86.13 -16.38C86.27 -16.9 86.39 -17.42 86.49 -17.94C86.59 -18.46 86.64 -19.24 86.64 -20.28C86.64 -20.92 86.3 -21.22 85.62 -21.18C84.94 -21.14 84.08 -21.12 83.04 -21.12L80.04 -21.12C79.48 -21.24 78.42 -21.3 76.86 -21.3C76.02 -21.3 75.36 -21.32 74.88 -21.36C74.4 -21.4 74.03 -21.47 73.77 -21.57C73.51 -21.67 73.35 -21.81 73.29 -21.99C73.23 -22.17 73.2 -22.38 73.2 -22.62C73.2 -22.94 73.33 -23.25 73.59 -23.55C73.85 -23.85 74.3 -24 74.94 -24C75.66 -24 76.44 -23.97 77.28 -23.91C78.12 -23.85 78.6 -23.78 78.72 -23.7C79.04 -23.7 79.36 -23.71 79.68 -23.73C80 -23.75 80.36 -23.76 80.76 -23.76C81.44 -23.76 82.12 -23.75 82.8 -23.73C83.48 -23.71 84.11 -23.68 84.69 -23.64C85.27 -23.6 85.77 -23.56 86.19 -23.52C86.61 -23.48 86.9 -23.44 87.06 -23.4C87.34 -23.48 87.93 -23.55 88.83 -23.61C89.73 -23.67 90.54 -23.7 91.26 -23.7C91.46 -23.7 91.64 -23.69 91.8 -23.67C91.96 -23.65 92.08 -23.64 92.16 -23.64C93.4 -23.64 94.36 -23.69 95.04 -23.79C95.72 -23.89 96.32 -23.94 96.84 -23.94C97.16 -23.94 97.4 -23.92 97.56 -23.88C97.72 -23.92 98 -23.96 98.4 -24C98.8 -24.04 99.23 -24.09 99.69 -24.15C100.15 -24.21 100.6 -24.26 101.04 -24.3C101.48 -24.34 101.86 -24.36 102.18 -24.36C102.38 -24.36 102.55 -24.35 102.69 -24.33C102.83 -24.31 102.94 -24.3 103.02 -24.3ZM106.32 2.58C105.84 2.78 105.34 2.94 104.82 3.06C104.3 3.18 103.71 3.29 103.05 3.39C102.39 3.49 101.64 3.56 100.8 3.6C99.96 3.64 98.98 3.66 97.86 3.66C97.3 3.66 96.72 3.64 96.12 3.6C95.52 3.56 94.98 3.52 94.5 3.48C94.18 3.6 93.86 3.66 93.54 3.66C92.54 3.66 91.88 3.41 91.56 2.91C91.24 2.41 91.08 1.76 91.08 0.96C91.08 0.8 91.09 0.66 91.11 0.54C91.13 0.42 91.16 0.28 91.2 0.12C91.04 -0.96 90.91 -1.97 90.81 -2.91C90.71 -3.85 90.66 -4.84 90.66 -5.88C90.66 -6.72 90.69 -7.38 90.75 -7.86C90.81 -8.34 90.9 -8.69 91.02 -8.91C91.14 -9.13 91.27 -9.26 91.41 -9.3C91.55 -9.34 91.72 -9.36 91.92 -9.36C92.32 -9.36 92.62 -9.26 92.82 -9.06C93.02 -8.86 93.16 -8.61 93.24 -8.31C93.32 -8.01 93.36 -7.68 93.36 -7.32L93.36 -6.3L93.36 -5.34C93.4 -4.66 93.42 -4.07 93.42 -3.57C93.42 -3.07 93.44 -2.58 93.48 -2.1C93.52 -1.62 93.58 -1.14 93.66 -0.66C93.74 -0.18 93.88 0.36 94.08 0.96C94.88 0.96 95.88 0.98 97.08 1.02C98.28 1.06 99.3 1.08 100.14 1.08C101.14 1.08 102.07 1.02 102.93 0.9C103.79 0.78 104.92 0.64 106.32 0.48C106.68 0.68 106.86 1 106.86 1.44C106.86 1.84 106.68 2.22 106.32 2.58ZM92.64 -34.56L92.64 -34.74C92.64 -35.98 92.5 -36.92 92.22 -37.56C91.94 -38.2 91.57 -38.65 91.11 -38.91C90.65 -39.17 90.14 -39.32 89.58 -39.36C89.02 -39.4 88.48 -39.44 87.96 -39.48C86.88 -39.24 86.09 -38.65 85.59 -37.71C85.09 -36.77 84.84 -35.84 84.84 -34.92C84.84 -34.2 85.04 -33.63 85.44 -33.21C85.84 -32.79 86.28 -32.48 86.76 -32.28C87.24 -32.08 87.69 -31.96 88.11 -31.92C88.53 -31.88 88.78 -31.86 88.86 -31.86C89.38 -31.86 89.87 -31.99 90.33 -32.25C90.79 -32.51 91.19 -32.81 91.53 -33.15C91.87 -33.49 92.14 -33.8 92.34 -34.08C92.54 -34.36 92.64 -34.52 92.64 -34.56Z"></path></g></g></svg>