<svg xmlns="http://www.w3.org/2000/svg" version="1.1" xlink="http://www.w3.org/1999/xlink" xmlns:svgjs="http://svgjs.com/svgjs" width="100%" height="100%" preserveAspectRatio="xMidYMid meet" viewBox="0 0 221.48348999023438 147.00186157226562" overflow="visible"><defs id="SvgjsDefs39423"></defs><g id="SvgjsG39424" transform="scale(0.6565780656689748)" opacity="1"><g id="SvgjsG39425" class="yi6TcHRQO" transform="translate(105.61992685830921, 0) scale(1.2609453988773602)" light-content="false" non-strokable="false" fill="#171717"><rect width="100" height="100" rx="10"></rect></g><g id="SvgjsG39426" class="yg8ODCToDv" transform="translate(115.3202004757139, 9.6956739344896) scale(1.0669712983590065)" light-content="true" non-strokable="false" fill="#ffffff"><path d="M49 74.348v14.836c0 .55.45 1 1 1s1-.45 1-1V74.348c8.496-.422 16.215-6.106 18.195-13.574 1.063-4.012.59-8.129-.031-12.344-1.86-12.559-4.383-25.559-12.82-34.359-1.59-1.66-2.992-2.84-4.414-3.71a3.723 3.723 0 0 0-3.86 0c-1.422.87-2.824 2.05-4.414 3.71-8.437 8.8-10.96 21.801-12.82 34.359-.625 4.215-1.098 8.332-.031 12.344 1.98 7.469 9.7 13.152 18.195 13.574zM32.816 48.719c1.813-12.238 4.254-24.891 12.285-33.27 1.469-1.531 2.742-2.61 4.016-3.39a1.694 1.694 0 0 1 1.766 0c1.269.78 2.546 1.859 4.015 3.39 8.027 8.379 10.473 21.027 12.285 33.27.594 4 1.043 7.894.078 11.539-1.988 7.5-9.656 11.703-16.262 12.09V51.457l5.355-5.356a1 1 0 1 0-1.414-1.414L51 48.63V37.817c0-.551-.45-1-1-1s-1 .449-1 1v21.535l-6.543-6.543a1 1 0 1 0-1.414 1.414L49 62.18v10.172c-6.606-.39-14.273-4.594-16.262-12.09-.969-3.648-.516-7.54.078-11.543z"></path></g><g id="SvgjsG39427" class="text" transform="translate(169.27, 215.37091342064974) scale(1)" light-content="false" fill="#171717"><path d="M-147.05 -33.36C-145.54 -35.78 -144.19 -38.25 -143 -40.78C-141.82 -43.31 -140.78 -45.93 -139.88 -48.63C-141.73 -49.38 -143.55 -50 -145.35 -50.47C-147.14 -50.95 -149.01 -51.44 -150.95 -51.96L-152.09 -50.47C-151.05 -49.95 -150.17 -49.48 -149.46 -49.05C-148.75 -48.63 -148.19 -48.27 -147.76 -47.99C-147.14 -47.61 -146.87 -47.24 -146.94 -46.89C-147.01 -46.53 -147.14 -46.02 -147.33 -45.36C-148.04 -42.52 -149.06 -39.66 -150.39 -36.77C-151.71 -33.88 -153.3 -31.07 -155.14 -28.32C-156.99 -25.58 -159.09 -22.92 -161.46 -20.34C-163.83 -17.76 -166.43 -15.36 -169.27 -13.13L-167.85 -11.71C-163.87 -14.46 -160.28 -17.46 -157.06 -20.73C-153.84 -23.99 -150.95 -27.5 -148.4 -31.23C-145.65 -28.11 -143.07 -25.11 -140.66 -22.22C-138.25 -19.33 -135.76 -16.4 -133.21 -13.42L-129.09 -17.46C-132.59 -20.02 -135.82 -22.64 -138.78 -25.34C-141.74 -28.04 -144.49 -30.71 -147.05 -33.36ZM-119.08 -32.8L-119.08 -6.96C-119.08 -5.58 -119.07 -4.16 -119.05 -2.7C-119.02 -1.23 -118.99 0.2 -118.94 1.6C-118.89 2.99 -118.83 4.29 -118.76 5.5C-118.69 6.71 -118.61 7.71 -118.51 8.52L-115.53 8.16C-115.34 7.08 -115.18 5.68 -115.03 3.98C-114.89 2.27 -114.77 0.47 -114.68 -1.42C-114.59 -3.31 -114.5 -5.21 -114.43 -7.1C-114.36 -8.99 -114.32 -10.67 -114.32 -12.14L-114.32 -51.89C-114.32 -52.84 -114.25 -53.86 -114.11 -54.94C-113.97 -56.03 -113.78 -57 -113.54 -57.85C-115.44 -58.23 -117.58 -58.65 -119.97 -59.1C-122.36 -59.55 -124.76 -59.91 -127.17 -60.2L-127.95 -58.28C-124.93 -57.57 -122.69 -56.73 -121.25 -55.76C-119.8 -54.79 -119.08 -53.5 -119.08 -51.89L-119.08 -35.28C-119.84 -35.23 -120.68 -35.2 -121.6 -35.17C-122.52 -35.15 -123.46 -35.14 -124.41 -35.14C-125.35 -35.14 -126.27 -35.13 -127.17 -35.1C-128.07 -35.08 -128.85 -35.07 -129.52 -35.07C-130.94 -35.02 -132.41 -35.04 -133.95 -35.14C-135.49 -35.23 -136.73 -35.38 -137.68 -35.56L-135.83 -31.38C-134.89 -31.57 -133.78 -31.74 -132.5 -31.91C-131.22 -32.07 -129.85 -32.2 -128.38 -32.3C-126.91 -32.39 -125.39 -32.49 -123.8 -32.58C-122.22 -32.68 -120.64 -32.75 -119.08 -32.8Z M-81.32 -25.06L-81.32 -13.35C-82.88 -13.25 -84.46 -13.17 -86.07 -13.1C-87.68 -13.03 -89.31 -12.94 -90.97 -12.85C-92.53 -12.75 -94.24 -12.78 -96.08 -12.92C-97.93 -13.06 -99.63 -13.25 -101.19 -13.49L-98.42 -8.94C-97.62 -9.09 -96.72 -9.2 -95.73 -9.3L-92.74 -9.58C-91.75 -9.68 -90.82 -9.76 -89.94 -9.83C-89.07 -9.9 -88.37 -9.96 -87.85 -10.01C-85.39 -10.2 -82.74 -10.48 -79.9 -10.86C-77.06 -11.24 -74.12 -11.68 -71.09 -12.17C-68.06 -12.67 -64.99 -13.23 -61.87 -13.84C-58.74 -14.46 -55.67 -15.12 -52.64 -15.83L-52.64 -6.96C-52.64 -5.58 -52.63 -4.16 -52.6 -2.7C-52.58 -1.23 -52.54 0.2 -52.5 1.6C-52.45 2.99 -52.39 4.29 -52.32 5.5C-52.25 6.71 -52.16 7.71 -52.07 8.52L-49.09 8.16C-48.9 7.08 -48.73 5.68 -48.59 3.98C-48.45 2.27 -48.33 0.47 -48.24 -1.42C-48.14 -3.31 -48.06 -5.21 -47.99 -7.1C-47.92 -8.99 -47.88 -10.67 -47.88 -12.14L-47.88 -25.84C-46.93 -25.84 -45.89 -25.85 -44.76 -25.87C-43.62 -25.9 -42.47 -25.91 -41.31 -25.91L-37.91 -25.91C-36.8 -25.91 -35.77 -25.89 -34.82 -25.84L-34.18 -30.31C-36.59 -29.93 -38.98 -29.61 -41.35 -29.35C-43.72 -29.09 -45.89 -28.92 -47.88 -28.82L-47.88 -51.89C-47.88 -52.84 -47.8 -53.86 -47.63 -54.94C-47.47 -56.03 -47.29 -57 -47.1 -57.85C-48.99 -58.23 -51.13 -58.65 -53.52 -59.1C-55.91 -59.55 -58.32 -59.91 -60.73 -60.2L-61.51 -58.28C-58.48 -57.57 -56.25 -56.73 -54.8 -55.76C-53.36 -54.79 -52.64 -53.5 -52.64 -51.89L-52.64 -17.82C-56.28 -17.01 -60.09 -16.28 -64.07 -15.62C-68.04 -14.95 -72.18 -14.39 -76.49 -13.91L-76.49 -25.13C-74.6 -25.41 -72.83 -25.91 -71.2 -26.62C-69.57 -27.33 -68.17 -28.24 -67.01 -29.35C-65.85 -30.47 -64.94 -31.72 -64.28 -33.12C-63.62 -34.51 -63.29 -36.04 -63.29 -37.69C-63.29 -39.35 -63.63 -40.91 -64.31 -42.38C-65 -43.85 -65.96 -45.14 -67.19 -46.25C-68.42 -47.36 -69.88 -48.27 -71.56 -48.98C-73.24 -49.69 -75.07 -50.16 -77.06 -50.4C-76.96 -50.92 -76.83 -51.41 -76.67 -51.86C-76.5 -52.31 -76.32 -52.77 -76.13 -53.24C-77.32 -53.48 -78.44 -53.68 -79.51 -53.84C-80.57 -54.01 -81.65 -54.21 -82.74 -54.45L-83.45 -53.1C-82.36 -52.72 -81.6 -52.34 -81.17 -51.96C-80.75 -51.58 -80.49 -51.11 -80.39 -50.54C-82.52 -50.45 -84.5 -50.06 -86.32 -49.37C-88.14 -48.69 -89.72 -47.77 -91.04 -46.64C-92.37 -45.5 -93.41 -44.17 -94.16 -42.63C-94.92 -41.09 -95.3 -39.45 -95.3 -37.69C-95.3 -35.99 -94.96 -34.41 -94.27 -32.94C-93.58 -31.47 -92.61 -30.18 -91.36 -29.07C-90.11 -27.96 -88.63 -27.05 -86.92 -26.34C-85.22 -25.63 -83.35 -25.2 -81.32 -25.06ZM-68.4 -38.05C-68.4 -36.58 -68.67 -35.23 -69.21 -34C-69.76 -32.77 -70.51 -31.71 -71.48 -30.81C-72.45 -29.91 -73.6 -29.2 -74.93 -28.68C-76.25 -28.16 -77.7 -27.9 -79.26 -27.9C-80.82 -27.9 -82.26 -28.16 -83.59 -28.68C-84.91 -29.2 -86.06 -29.91 -87.03 -30.81C-88 -31.71 -88.77 -32.77 -89.34 -34C-89.91 -35.23 -90.19 -36.58 -90.19 -38.05C-90.19 -39.47 -89.91 -40.79 -89.34 -42.02C-88.77 -43.25 -88 -44.33 -87.03 -45.25C-86.06 -46.18 -84.91 -46.91 -83.59 -47.45C-82.26 -48 -80.82 -48.27 -79.26 -48.27C-77.74 -48.27 -76.32 -48 -75 -47.45C-73.67 -46.91 -72.53 -46.18 -71.56 -45.25C-70.58 -44.33 -69.82 -43.25 -69.25 -42.02C-68.68 -40.79 -68.4 -39.47 -68.4 -38.05Z M-7.13 -41.1C-5.81 -42.85 -4.61 -44.67 -3.55 -46.57C-2.48 -48.46 -1.55 -50.47 -0.75 -52.6C-2.59 -53.36 -4.4 -53.97 -6.18 -54.45C-7.95 -54.92 -9.81 -55.42 -11.75 -55.94L-12.96 -54.52C-11.87 -54 -10.98 -53.52 -10.29 -53.1C-9.61 -52.67 -9.03 -52.32 -8.55 -52.03C-7.99 -51.61 -7.71 -51.23 -7.74 -50.9C-7.76 -50.57 -7.89 -50.07 -8.13 -49.41C-8.93 -46.99 -10.08 -44.6 -11.57 -42.24C-13.06 -39.87 -14.81 -37.61 -16.82 -35.46C-18.84 -33.3 -21.05 -31.25 -23.46 -29.28C-25.87 -27.32 -28.38 -25.53 -30.99 -23.92L-29.71 -22.43C-26.06 -24.42 -22.37 -26.8 -18.63 -29.57C-14.9 -32.33 -11.54 -35.54 -8.55 -39.18C-7.23 -37.91 -5.99 -36.72 -4.83 -35.64C-3.67 -34.55 -2.54 -33.47 -1.46 -32.41C-0.37 -31.34 0.75 -30.25 1.88 -29.14C3.02 -28.03 4.22 -26.83 5.5 -25.56L9.62 -29.25C7.77 -30.29 6.09 -31.28 4.58 -32.23C3.06 -33.17 1.64 -34.13 0.32 -35.1C-1.01 -36.07 -2.27 -37.04 -3.48 -38.01C-4.69 -38.98 -5.9 -40.01 -7.13 -41.1ZM10.9 -60.2L10.12 -58.28C13.14 -57.57 15.38 -56.73 16.82 -55.76C18.27 -54.79 18.99 -53.5 18.99 -51.89L18.99 -31.23C18.99 -29.91 19.04 -28.44 19.13 -26.83C19.23 -25.22 19.34 -23.92 19.49 -22.93L22.61 -23.35C22.75 -23.92 22.88 -24.7 23 -25.7C23.12 -26.69 23.24 -27.73 23.35 -28.82C23.47 -29.91 23.57 -31.02 23.64 -32.16C23.71 -33.29 23.75 -34.29 23.75 -35.14L23.75 -51.89C23.75 -52.84 23.82 -53.86 23.96 -54.94C24.1 -56.03 24.27 -57 24.46 -57.85C22.61 -58.23 20.49 -58.65 18.1 -59.1C15.71 -59.55 13.31 -59.91 10.9 -60.2ZM18 -17.46L17.78 -9.02C15.51 -8.87 13.09 -8.74 10.51 -8.62C7.93 -8.51 5.28 -8.44 2.56 -8.41C-0.17 -8.39 -2.89 -8.42 -5.61 -8.52C-8.33 -8.61 -10.97 -8.8 -13.52 -9.09L-14.23 -7.45C-13.14 -7.12 -12.27 -6.81 -11.61 -6.53C-10.94 -6.25 -10.44 -5.9 -10.08 -5.5C-9.73 -5.1 -9.49 -4.6 -9.37 -4.01C-9.25 -3.42 -9.19 -2.67 -9.19 -1.77L-9.19 3.12C-9.19 4.21 -8.91 5.1 -8.34 5.79C-7.77 6.47 -6.87 6.77 -5.64 6.67C-3.51 6.58 -1.15 6.48 1.46 6.39C4.06 6.29 6.74 6.22 9.51 6.18C12.28 6.13 15.07 6.12 17.89 6.14C20.7 6.16 23.41 6.22 26.02 6.32L27.01 1.92C24.98 2.25 22.68 2.53 20.12 2.77C17.57 3.01 14.99 3.21 12.39 3.37C9.78 3.54 7.26 3.64 4.83 3.69C2.39 3.74 0.3 3.74 -1.46 3.69C-2.69 3.64 -3.49 3.5 -3.87 3.27C-4.25 3.03 -4.44 2.48 -4.44 1.63L-4.44 -2.98C-4.44 -3.36 -4.42 -3.8 -4.4 -4.29C-4.38 -4.79 -4.34 -5.28 -4.29 -5.75C-3.06 -5.8 -1.44 -5.87 0.57 -5.96C2.58 -6.06 4.83 -6.14 7.31 -6.21C9.8 -6.28 12.42 -6.32 15.19 -6.32C17.96 -6.32 20.69 -6.25 23.39 -6.1L23.75 -9.51C23.18 -9.42 22.54 -9.35 21.83 -9.3L22.89 -15.69C23.04 -16.59 23.19 -17.47 23.35 -18.35C23.52 -19.23 23.67 -19.9 23.82 -20.37C21.5 -20.14 19.11 -19.96 16.65 -19.84C14.19 -19.72 11.76 -19.63 9.37 -19.56C6.98 -19.49 4.67 -19.45 2.45 -19.45L-3.66 -19.45C-4.41 -19.45 -5.23 -19.47 -6.1 -19.52C-6.98 -19.57 -7.84 -19.64 -8.7 -19.73C-9.55 -19.83 -10.35 -19.94 -11.11 -20.05C-11.87 -20.17 -12.53 -20.28 -13.1 -20.37L-10.61 -15.97C-9.71 -16.11 -8.78 -16.24 -7.81 -16.36C-6.84 -16.48 -5.9 -16.59 -5 -16.68C-4.11 -16.78 -3.28 -16.85 -2.52 -16.89C-1.76 -16.94 -1.12 -16.99 -0.6 -17.04C0.63 -17.13 2.07 -17.21 3.73 -17.29C5.38 -17.36 7.08 -17.42 8.8 -17.46C10.53 -17.51 12.2 -17.53 13.81 -17.53C15.42 -17.53 16.81 -17.51 18 -17.46Z M73.01 -26.19L73.01 -36.2C76.09 -36.3 79.15 -36.35 82.2 -36.35C85.26 -36.35 88.15 -36.3 90.9 -36.2L91.68 -40.68C89.41 -40.39 86.77 -40.11 83.76 -39.82C80.76 -39.54 77.72 -39.3 74.64 -39.11C71.57 -38.93 68.63 -38.77 65.84 -38.65C63.05 -38.53 60.75 -38.5 58.95 -38.55C57.54 -38.59 56.6 -38.88 56.15 -39.4C55.7 -39.92 55.48 -40.72 55.48 -41.81L55.48 -50.97C55.48 -51.82 55.51 -52.76 55.58 -53.77C55.65 -54.79 55.74 -55.61 55.83 -56.22C55.07 -56.36 54.2 -56.48 53.2 -56.58C52.21 -56.67 51.19 -56.78 50.15 -56.9C49.11 -57.01 48.09 -57.12 47.1 -57.22C46.11 -57.31 45.25 -57.4 44.54 -57.5L43.76 -55.58C45.14 -55.3 46.27 -55 47.17 -54.7C48.07 -54.39 48.78 -54.01 49.3 -53.56C49.82 -53.11 50.18 -52.53 50.37 -51.82C50.55 -51.11 50.65 -50.21 50.65 -49.12L50.65 -40.25C50.65 -38.92 50.96 -37.8 51.57 -36.88C52.19 -35.96 53.13 -35.54 54.41 -35.64C56.21 -35.73 58.3 -35.81 60.69 -35.88C63.08 -35.96 65.63 -36.04 68.33 -36.13L68.33 -26.12L62.5 -25.98C60.56 -25.93 58.73 -25.91 57 -25.91L52.21 -25.91C50.74 -25.91 49.54 -25.93 48.59 -25.98C46.37 -26.08 44.26 -26.18 42.27 -26.3C40.29 -26.42 38.18 -26.6 35.96 -26.83L37.8 -21.86C39.55 -22.1 41.34 -22.29 43.16 -22.43C44.98 -22.57 46.82 -22.72 48.66 -22.86C49.61 -22.91 51 -22.96 52.85 -23.04C54.7 -23.11 56.78 -23.19 59.1 -23.28C61.42 -23.38 63.85 -23.46 66.41 -23.53C68.96 -23.6 71.46 -23.66 73.9 -23.71C76.33 -23.76 78.59 -23.79 80.68 -23.82C82.76 -23.84 84.46 -23.85 85.79 -23.85C89.01 -23.8 92 -23.76 94.77 -23.71C97.54 -23.66 99.87 -23.59 101.76 -23.5L102.47 -28.11C99.91 -27.73 97.17 -27.42 94.24 -27.19C91.3 -26.95 88.2 -26.76 84.94 -26.62C83.71 -26.57 82.04 -26.51 79.93 -26.44C77.83 -26.37 75.52 -26.29 73.01 -26.19ZM72.44 -16.04C72.54 -16.56 72.67 -17.05 72.83 -17.5C73 -17.95 73.18 -18.39 73.37 -18.81C72.13 -19.05 70.98 -19.26 69.89 -19.45C68.8 -19.64 67.71 -19.85 66.62 -20.09L65.77 -18.74C66.91 -18.41 67.7 -18.05 68.15 -17.68C68.6 -17.3 68.87 -16.78 68.96 -16.11C66.98 -16.02 65.12 -15.65 63.39 -15.01C61.66 -14.37 60.19 -13.52 58.95 -12.46C57.72 -11.39 56.75 -10.15 56.04 -8.73C55.33 -7.31 54.98 -5.8 54.98 -4.19C54.98 -2.48 55.37 -0.89 56.15 0.6C56.93 2.09 58 3.37 59.35 4.44C60.69 5.5 62.3 6.34 64.17 6.96C66.04 7.57 68.09 7.88 70.31 7.88C72.49 7.88 74.52 7.57 76.42 6.96C78.31 6.34 79.96 5.5 81.35 4.44C82.75 3.37 83.84 2.09 84.62 0.6C85.4 -0.89 85.79 -2.48 85.79 -4.19C85.79 -5.75 85.46 -7.22 84.79 -8.59C84.13 -9.96 83.21 -11.17 82.03 -12.21C80.84 -13.25 79.43 -14.11 77.8 -14.8C76.17 -15.49 74.38 -15.9 72.44 -16.04ZM80.75 -4.61C80.75 -3.24 80.49 -1.98 79.97 -0.82C79.45 0.34 78.72 1.35 77.8 2.2C76.88 3.05 75.78 3.73 74.5 4.22C73.22 4.72 71.83 4.97 70.31 4.97C68.85 4.97 67.47 4.72 66.2 4.22C64.92 3.73 63.82 3.05 62.89 2.2C61.97 1.35 61.25 0.34 60.73 -0.82C60.21 -1.98 59.95 -3.24 59.95 -4.61C59.95 -5.94 60.21 -7.18 60.73 -8.34C61.25 -9.5 61.97 -10.51 62.89 -11.36C63.82 -12.21 64.92 -12.88 66.2 -13.38C67.47 -13.88 68.85 -14.13 70.31 -14.13C71.78 -14.13 73.15 -13.88 74.43 -13.38C75.71 -12.88 76.82 -12.21 77.77 -11.36C78.71 -10.51 79.45 -9.5 79.97 -8.34C80.49 -7.18 80.75 -5.94 80.75 -4.61Z M132.78 -53.52C132.88 -54 132.99 -54.44 133.14 -54.84C133.28 -55.24 133.44 -55.68 133.63 -56.15C132.55 -56.34 131.53 -56.51 130.58 -56.65C129.63 -56.79 128.64 -56.96 127.6 -57.14L127.1 -55.87C128 -55.54 128.64 -55.22 129.02 -54.91C129.4 -54.6 129.61 -54.19 129.66 -53.67C127.67 -53.57 125.85 -53.22 124.19 -52.6C122.54 -51.99 121.1 -51.18 119.9 -50.19C118.69 -49.19 117.76 -48.03 117.09 -46.71C116.43 -45.38 116.1 -43.96 116.1 -42.45C116.1 -40.79 116.47 -39.28 117.2 -37.91C117.93 -36.53 118.94 -35.34 120.22 -34.32C121.49 -33.3 123.02 -32.51 124.8 -31.94C126.57 -31.38 128.52 -31.09 130.65 -31.09C132.73 -31.09 134.67 -31.38 136.47 -31.94C138.27 -32.51 139.82 -33.3 141.12 -34.32C142.42 -35.34 143.45 -36.53 144.21 -37.91C144.97 -39.28 145.35 -40.79 145.35 -42.45C145.35 -43.87 145.04 -45.22 144.42 -46.5C143.81 -47.77 142.94 -48.9 141.83 -49.87C140.72 -50.84 139.4 -51.64 137.86 -52.28C136.32 -52.92 134.63 -53.34 132.78 -53.52ZM140.59 -42.66C140.59 -41.39 140.34 -40.21 139.84 -39.15C139.35 -38.08 138.67 -37.16 137.82 -36.38C136.97 -35.6 135.95 -35 134.77 -34.57C133.59 -34.14 132.31 -33.93 130.94 -33.93C129.56 -33.93 128.3 -34.14 127.14 -34.57C125.98 -35 124.96 -35.6 124.09 -36.38C123.21 -37.16 122.52 -38.08 122.03 -39.15C121.53 -40.21 121.28 -41.39 121.28 -42.66C121.28 -43.89 121.53 -45.04 122.03 -46.11C122.52 -47.17 123.21 -48.11 124.09 -48.91C124.96 -49.71 125.98 -50.34 127.14 -50.79C128.3 -51.24 129.56 -51.47 130.94 -51.47C132.26 -51.47 133.52 -51.24 134.7 -50.79C135.88 -50.34 136.91 -49.71 137.79 -48.91C138.66 -48.11 139.35 -47.17 139.84 -46.11C140.34 -45.04 140.59 -43.89 140.59 -42.66ZM167.28 5.61L168.06 1.21C165.98 1.54 163.54 1.82 160.75 2.06C157.96 2.3 155.12 2.48 152.23 2.63C149.35 2.77 146.57 2.86 143.89 2.91C141.22 2.96 138.98 2.96 137.18 2.91C135.81 2.86 134.89 2.69 134.41 2.38C133.94 2.07 133.7 1.4 133.7 0.35L133.7 -4.19C133.7 -5.09 133.74 -6.05 133.81 -7.06C133.88 -8.08 133.96 -8.87 134.06 -9.44C133.35 -9.54 132.53 -9.64 131.61 -9.76C130.69 -9.88 129.74 -10 128.77 -10.12C127.8 -10.23 126.87 -10.35 125.97 -10.47C125.07 -10.59 124.26 -10.7 123.55 -10.79L122.7 -8.94C124.12 -8.57 125.23 -8.22 126.04 -7.92C126.84 -7.61 127.46 -7.23 127.88 -6.78C128.31 -6.33 128.58 -5.76 128.7 -5.08C128.82 -4.39 128.88 -3.5 128.88 -2.41L128.88 2.63C128.88 3.57 129.17 4.37 129.76 5C130.36 5.64 131.31 5.92 132.64 5.82C134.77 5.68 137.22 5.56 139.99 5.47C142.76 5.37 145.67 5.31 148.72 5.29C151.77 5.26 154.88 5.28 158.05 5.32C161.22 5.37 164.3 5.47 167.28 5.61ZM158.83 -17.04C158.83 -16.33 158.85 -15.51 158.87 -14.59C158.89 -13.67 158.93 -12.73 158.98 -11.78C159.02 -10.84 159.07 -9.94 159.12 -9.09C159.17 -8.23 159.24 -7.55 159.33 -7.03L162.45 -7.45C162.6 -8.16 162.74 -9.12 162.88 -10.33C163.02 -11.54 163.15 -12.83 163.27 -14.2C163.39 -15.57 163.48 -16.91 163.55 -18.21C163.63 -19.51 163.66 -20.59 163.66 -21.44L163.66 -51.89C163.66 -52.84 163.73 -53.86 163.87 -54.94C164.02 -56.03 164.18 -57 164.37 -57.85C162.53 -58.23 160.4 -58.65 157.98 -59.1C155.57 -59.55 153.18 -59.91 150.81 -60.2L149.96 -58.28C152.99 -57.57 155.23 -56.73 156.67 -55.76C158.11 -54.79 158.83 -53.5 158.83 -51.89L158.83 -19.52C158.17 -19.47 157.41 -19.43 156.56 -19.38C155.71 -19.33 154.81 -19.28 153.86 -19.24C152.92 -19.19 151.97 -19.15 151.03 -19.13C150.08 -19.11 149.18 -19.1 148.33 -19.1C146.91 -19.05 145.42 -19.07 143.86 -19.17C142.29 -19.26 141.04 -19.4 140.09 -19.59L142.01 -15.55C144.09 -15.92 146.66 -16.24 149.71 -16.5C152.76 -16.76 155.81 -16.94 158.83 -17.04ZM133.63 -21.58L133.63 -24.42C136.8 -24.8 140.08 -25.26 143.47 -25.8C146.85 -26.35 150.46 -27 154.29 -27.76L154.29 -29.67C151.5 -29.15 148.73 -28.71 145.99 -28.36C143.24 -28 140.42 -27.69 137.54 -27.4C134.65 -27.12 131.63 -26.88 128.49 -26.69C125.34 -26.5 121.99 -26.36 118.44 -26.27C116.88 -26.22 115.18 -26.25 113.33 -26.37C111.49 -26.49 109.78 -26.67 108.22 -26.9L110.92 -22.15C111.72 -22.29 112.63 -22.42 113.65 -22.54C114.67 -22.66 115.67 -22.78 116.67 -22.89C117.66 -23.01 118.6 -23.11 119.47 -23.18C120.35 -23.25 121.05 -23.31 121.57 -23.35C122.8 -23.45 124.01 -23.53 125.22 -23.6C126.43 -23.67 127.6 -23.76 128.74 -23.85L128.74 -20.59C128.74 -19.26 128.83 -17.81 129.02 -16.22C129.21 -14.64 129.4 -13.35 129.59 -12.35L132.64 -12.78C132.92 -13.91 133.16 -15.24 133.35 -16.75C133.54 -18.27 133.63 -19.88 133.63 -21.58Z"></path></g></g></svg>