<?xml version="1.0" encoding="iso-8859-1"?>
<!-- Uploaded to: SVG Repo, www.svgrepo.com, Generator: SVG Repo Mixer Tools -->
<svg version="1.1" id="Layer_1" xmlns="http://www.w3.org/2000/svg" xmlns:xlink="http://www.w3.org/1999/xlink" 
	 viewBox="0 0 512.001 512.001" xml:space="preserve">
<path style="fill:#4C9462;" d="M404.88,447.431c-8.534,0-16.673,1.671-24.13,4.679c-15.735-16.375-37.839-26.583-62.342-26.583
	c-45.533,0-82.845,35.192-86.223,79.86c-0.27,3.57,2.578,6.613,6.157,6.613h224.617c3.693,0,6.516-3.221,6.126-6.892
	C465.646,472.688,438.213,447.431,404.88,447.431z"/>
<path style="opacity:0.15;enable-background:new    ;" d="M469.086,505.108c-0.367-3.458-1.023-6.828-1.913-10.1H257.552
	c-3.581,0-6.428-3.043-6.157-6.613c1.405-18.584,8.698-35.514,20-48.965c-22.008,14.287-37.118,38.3-39.209,65.958
	c-0.27,3.57,2.578,6.613,6.157,6.613H462.96C466.652,512,469.476,508.779,469.086,505.108z"/>
<rect x="196.189" y="252.509" style="fill:#65513C;" width="122.215" height="259.491"/>
<g style="opacity:0.1;">
	<path d="M232.167,411.706c-4.59,0-8.312-3.721-8.312-8.312v-28.075c0-4.59,3.721-8.312,8.312-8.312c4.59,0,8.312,3.721,8.312,8.312
		v28.075C240.479,407.984,236.757,411.706,232.167,411.706z"/>
	<path d="M278.518,466.378c-4.59,0-8.312-3.721-8.312-8.312v-46.545c0-4.59,3.721-8.312,8.312-8.312s8.312,3.721,8.312,8.312v46.545
		C286.83,462.657,283.109,466.378,278.518,466.378z"/>
</g>
<path style="fill:#4C9462;" d="M458.492,136.606c0-56.137-45.508-101.645-101.645-101.645c-7.197,0-14.217,0.752-20.991,2.175
	C317.212,14.462,288.947,0,257.301,0s-59.912,14.463-78.554,37.138c-6.776-1.423-13.799-2.177-20.998-2.177
	c-56.137,0-101.645,45.508-101.645,101.645c0,20.742,6.218,40.029,16.884,56.109c-5.85,13.042-9.107,27.499-9.107,42.72
	c0,57.709,46.782,104.49,104.49,104.49c16.619,0,32.328-3.887,46.277-10.79c13.535,3.935,27.843,6.054,42.648,6.054
	c14.805,0,29.113-2.118,42.649-6.054c13.95,6.903,29.659,10.79,46.278,10.79c57.709,0,104.49-46.782,104.49-104.49
	c0-15.219-3.257-29.677-9.106-42.72C452.274,176.636,458.492,157.348,458.492,136.606z"/>
<path style="opacity:0.15;enable-background:new    ;" d="M371.711,315.64c-16.619,0-32.328-3.887-46.278-10.79
	c-13.535,3.935-27.843,6.054-42.648,6.054c-14.805,0-29.113-2.118-42.648-6.054c-13.95,6.903-29.659,10.79-46.277,10.79
	c-57.709,0-104.49-46.782-104.49-104.49c0-15.219,3.257-29.677,9.107-42.72c-10.667-16.08-16.884-35.367-16.884-56.109
	c0-22.597,7.377-43.468,19.851-60.345c-27.33,18.22-45.337,49.32-45.337,84.63c0,20.742,6.218,40.029,16.884,56.109
	c-5.85,13.042-9.107,27.499-9.107,42.72c0,57.709,46.782,104.49,104.49,104.49c16.619,0,32.328-3.887,46.277-10.79
	c13.535,3.935,27.843,6.054,42.648,6.054c14.805,0,29.113-2.118,42.649-6.054c13.95,6.903,29.659,10.79,46.278,10.79
	c34.3,0,64.738-16.527,83.79-42.052C413.361,309.091,393.302,315.64,371.711,315.64z"/>
<path style="fill:#4C9462;" d="M206.73,459.352c-3.822,0-7.545,0.418-11.135,1.19c-12.971-12.673-30.702-20.493-50.268-20.493
	c-23.747,0-44.8,11.51-57.904,29.249c-0.762-0.041-1.529-0.063-2.303-0.063c-21.136,0-38.691,15.333-42.148,35.483
	c-0.651,3.796,2.218,7.281,6.069,7.281h210.338C259.378,482.923,235.806,459.352,206.73,459.352z"/>
<path style="opacity:0.15;enable-background:new    ;" d="M257.45,497.892H70.397c-3.851,0-6.72-3.485-6.069-7.281
	c1.269-7.395,4.437-14.141,8.984-19.719c-15.602,4.473-27.554,17.582-30.341,33.826C42.321,508.515,45.189,512,49.04,512h210.338
	C259.378,507.112,258.697,502.384,257.45,497.892z"/>
</svg>