<?xml version="1.0" encoding="iso-8859-1"?>
<!-- Uploaded to: SVG Repo, www.svgrepo.com, Generator: SVG Repo Mixer Tools -->
<svg height="800px" width="800px" version="1.1" id="Layer_1" xmlns="http://www.w3.org/2000/svg" xmlns:xlink="http://www.w3.org/1999/xlink" 
	 viewBox="0 0 512 512" xml:space="preserve">
<g>
	<path style="fill:#7CD8A4;" d="M89.693,356.204C39.1,348.601,0.308,304.948,0.308,252.234c0-58.069,47.074-105.143,105.143-105.143
		s105.143,47.074,105.143,105.143c0,52.652-38.7,96.264-89.207,103.943"/>
	<path style="fill:#7CD8A4;" d="M387.502,209.37c-50.593-7.603-89.386-51.256-89.386-103.97
		c0-58.069,47.074-105.143,105.143-105.143s105.143,47.074,105.143,105.143c0,52.652-38.7,96.264-89.207,103.943"/>
</g>
<path style="fill:#54CE8E;" d="M465.962,21.172c12.738,17.393,20.265,38.842,20.265,62.052c0,52.652-38.7,96.264-89.207,103.943
	l-31.693,0.027c-17.144-2.576-32.923-9.302-46.307-19.106c16.191,22.116,40.809,37.675,69.132,41.932l31.693-0.027
	c50.507-7.679,89.207-51.292,89.207-103.943C509.052,71.192,492.084,40.301,465.962,21.172z"/>
<polygon style="fill:#F8F6F8;" points="87.218,400.957 43.34,367.696 0,398.581 0,511.742 512,511.742 512,358.775 422.794,280.201 
	390.921,285.34 295.902,364.951 236.193,327.205 122.037,398.581 "/>
<polygon style="opacity:0.15;fill:#ACAAB1;enable-background:new    ;" points="87.218,447.581 43.34,414.321 0,445.206 0,511.742 
	512,511.742 512,405.399 422.794,326.826 390.921,331.964 295.902,411.576 236.193,373.829 122.037,445.206 "/>
<polygon style="fill:#781900;" points="122.037,511.742 90.165,511.742 93.297,280.201 119.949,280.201 "/>
<path style="fill:#7CD8A4;" d="M90.344,356.204c-50.593-7.603-89.386-51.256-89.386-103.97c0-58.069,47.074-105.143,105.143-105.143
	s105.143,47.074,105.143,105.143c0,52.652-38.7,96.264-89.207,103.943"/>
<path style="fill:#54CE8E;" d="M169.806,168.591c13.485,17.678,21.499,39.755,21.499,63.705c0,52.652-38.7,96.264-89.207,103.943
	l-31.693,0.027c-17.842-2.682-34.203-9.861-47.925-20.325c16.194,21.224,40.263,36.116,67.864,40.264l31.693-0.027
	c50.507-7.679,89.207-51.292,89.207-103.943C211.244,218.117,194.989,187.8,169.806,168.591z"/>
<path style="fill:#781900;" d="M106.101,288.031c-4.325,0-7.829-3.504-7.829-7.829V212.13c0-4.324,3.504-7.829,7.829-7.829
	s7.829,3.504,7.829,7.829v68.072C113.93,284.526,110.426,288.031,106.101,288.031z"/>
<path id="SVGCleanerId_0" style="fill:#781900;" d="M107.664,288.031c-2.004,0-4.007-0.764-5.536-2.293l-30.396-30.397
	c-3.057-3.057-3.057-8.013,0.001-11.071c3.057-3.057,8.014-3.056,11.071,0.001l30.396,30.397c3.057,3.057,3.057,8.013-0.001,11.071
	C111.671,287.266,109.667,288.031,107.664,288.031z"/>
<g>
	<path id="SVGCleanerId_0_1_" style="fill:#781900;" d="M107.664,288.031c-2.004,0-4.007-0.764-5.536-2.293l-30.396-30.397
		c-3.057-3.057-3.057-8.013,0.001-11.071c3.057-3.057,8.014-3.056,11.071,0.001l30.396,30.397c3.057,3.057,3.057,8.013-0.001,11.071
		C111.671,287.266,109.667,288.031,107.664,288.031z"/>
</g>
<g>
	<path style="fill:#781900;" d="M105.451,288.031c-2.003,0-4.007-0.764-5.535-2.292c-3.058-3.058-3.058-8.014-0.001-11.071
		l30.396-30.397c3.058-3.058,8.015-3.057,11.071-0.001c3.058,3.058,3.058,8.014,0.001,11.071l-30.396,30.397
		C109.458,287.266,107.454,288.031,105.451,288.031z"/>
	<polygon style="fill:#781900;" points="121.387,511.742 89.515,511.742 92.646,273.18 119.299,273.18 	"/>
	<path style="fill:#781900;" d="M105.451,288.031c-4.325,0-7.829-3.504-7.829-7.829V212.13c0-4.324,3.504-7.829,7.829-7.829
		c4.324,0,7.829,3.504,7.829,7.829v68.072C113.279,284.526,109.775,288.031,105.451,288.031z"/>
</g>
<path id="SVGCleanerId_1" style="fill:#781900;" d="M107.013,288.031c-2.004,0-4.007-0.764-5.536-2.293l-30.396-30.397
	c-3.057-3.057-3.057-8.013,0.001-11.071c3.057-3.057,8.014-3.056,11.071,0.001l30.396,30.397c3.057,3.057,3.057,8.013-0.001,11.071
	C111.021,287.266,109.017,288.031,107.013,288.031z"/>
<g>
	<path id="SVGCleanerId_1_1_" style="fill:#781900;" d="M107.013,288.031c-2.004,0-4.007-0.764-5.536-2.293l-30.396-30.397
		c-3.057-3.057-3.057-8.013,0.001-11.071c3.057-3.057,8.014-3.056,11.071,0.001l30.396,30.397c3.057,3.057,3.057,8.013-0.001,11.071
		C111.021,287.266,109.017,288.031,107.013,288.031z"/>
</g>
<g>
	<path style="fill:#781900;" d="M104.801,288.031c-2.003,0-4.007-0.764-5.535-2.292c-3.058-3.058-3.058-8.014-0.001-11.071
		l30.396-30.397c3.058-3.058,8.015-3.057,11.071-0.001c3.058,3.058,3.058,8.014,0.001,11.071l-30.396,30.397
		C108.808,287.266,106.804,288.031,104.801,288.031z"/>
	<polygon style="fill:#781900;" points="422.793,511.742 390.921,511.742 394.053,126.662 420.705,126.662 	"/>
	<path style="fill:#781900;" d="M406.857,141.898c-4.325,0-7.829-3.504-7.829-7.829V65.997c0-4.325,3.504-7.829,7.829-7.829
		c4.324,0,7.829,3.504,7.829,7.829v68.072C414.686,138.392,411.182,141.898,406.857,141.898z"/>
</g>
<path id="SVGCleanerId_2" style="fill:#781900;" d="M408.421,141.898c-2.004,0-4.007-0.764-5.536-2.293l-30.396-30.397
	c-3.057-3.057-3.057-8.013,0.001-11.071c3.057-3.057,8.014-3.056,11.071,0.001l30.396,30.397c3.057,3.057,3.057,8.013-0.001,11.071
	C412.428,141.132,410.424,141.898,408.421,141.898z"/>
<g>
	<path id="SVGCleanerId_2_1_" style="fill:#781900;" d="M408.421,141.898c-2.004,0-4.007-0.764-5.536-2.293l-30.396-30.397
		c-3.057-3.057-3.057-8.013,0.001-11.071c3.057-3.057,8.014-3.056,11.071,0.001l30.396,30.397c3.057,3.057,3.057,8.013-0.001,11.071
		C412.428,141.132,410.424,141.898,408.421,141.898z"/>
</g>
<path style="fill:#781900;" d="M406.208,141.898c-2.003,0-4.007-0.764-5.535-2.292c-3.058-3.058-3.058-8.014-0.001-11.071
	l30.396-30.397c3.058-3.058,8.015-3.057,11.071-0.001c3.058,3.058,3.058,8.014,0.001,11.071l-30.396,30.397
	C410.215,141.132,408.211,141.898,406.208,141.898z"/>
<path style="fill:#FFDA44;" d="M249.933,63.024l-20.736-7.296c-0.49-0.172-0.932-0.456-1.292-0.83l-0.011-0.011
	c-3.621-11.038-12.13-19.845-22.963-23.821l-0.413-0.429c-0.294-0.306-0.528-0.665-0.688-1.058L195.26,8.486
	c-1.155-2.845-5.219-2.743-6.23,0.157l-7.254,20.799c-0.109,0.31-0.276,0.591-0.468,0.855
	c-12.128,3.558-21.739,13.039-25.505,25.122c-0.176,0.115-0.363,0.215-0.561,0.295l-21.117,8.617
	c-2.839,1.159-2.737,5.213,0.158,6.226l20.814,7.291c0.257,0.09,0.498,0.213,0.723,0.36c3.55,11.338,12.245,20.381,23.337,24.377
	l1.929,2.025c0.288,0.303,0.517,0.657,0.674,1.043l8.572,21.102c1.155,2.845,5.219,2.743,6.23-0.157l7.288-20.894
	c0.146-0.421,0.376-0.807,0.674-1.138l2.712-2.999c9.708-4.314,17.268-12.603,20.637-22.816l0.072-0.08
	c0.334-0.37,0.746-0.659,1.207-0.848l20.939-8.58C252.922,68.087,252.82,64.041,249.933,63.024z"/>
</svg>