<?xml version="1.0" encoding="iso-8859-1"?>
<!-- Uploaded to: SVG Repo, www.svgrepo.com, Generator: SVG Repo Mixer Tools -->
<svg xmlns="http://www.w3.org/2000/svg" xmlns:xlink="http://www.w3.org/1999/xlink" version="1.1" id="Layer_1"  viewBox="0 0 422.351 422.351" xml:space="preserve" width="512" height="512">
<g>
	<g>
		<rect x="60.807" y="332.008" style="fill:#997668;" width="50.761" height="79.973"/>
		<rect x="60.807" y="332.008" style="opacity:0.2;fill:#222222;" width="25.381" height="79.973"/>
		<path style="opacity:0.3;fill:#222222;" d="M60.807,332.008v41.104c8.116,2.09,16.621,3.202,25.38,3.202    c8.76,0,17.264-1.112,25.381-3.202v-41.104H60.807z"/>
		<path style="fill:#218649;" d="M172.374,274.505c0-47.6-19.406-264.136-86.187-264.136C19.406,10.37,0,226.906,0,274.505    c0,47.598,38.587,86.185,86.187,86.185S172.374,322.103,172.374,274.505z"/>
		<path style="opacity:0.2;fill:#222222;" d="M144.812,87.783c-3.013,10.321-5.847,21.468-8.479,33.453    c-13.914,63.334-18.415,130.61-18.415,153.27c0,25,9.063,47.919,24.069,65.659c18.583-15.81,30.387-39.351,30.387-65.659    C172.374,245.679,165.256,154.908,144.812,87.783z"/>
		<path style="opacity:0.2;fill:#222222;" d="M86.187,10.37C19.406,10.37,0,226.906,0,274.505c0,47.598,38.587,86.185,86.187,86.185    V10.37z"/>
		<g>
			<path style="fill:#77BC1F;" d="M32.174,296.097c-1.834,0-3.673-0.669-5.119-2.021c-3.026-2.828-3.188-7.574-0.359-10.601     l22.667-24.257c2.829-3.025,7.575-3.186,10.601-0.358c3.026,2.828,3.188,7.574,0.359,10.601l-22.667,24.257     C36.178,295.298,34.178,296.097,32.174,296.097z"/>
			<path style="fill:#77BC1F;" d="M121.516,117.465c-2.414,0-4.785-1.164-6.232-3.319L96.617,86.357     c-2.31-3.438-1.395-8.098,2.043-10.407c3.438-2.31,8.099-1.395,10.408,2.044l18.667,27.789c2.31,3.438,1.395,8.098-2.044,10.407     C124.408,117.052,122.954,117.465,121.516,117.465z"/>
			<path style="fill:#77BC1F;" d="M58.172,101.777c-0.967,0-1.951-0.188-2.899-0.586c-3.819-1.604-5.616-5.999-4.013-9.818     l15.322-36.512c1.603-3.818,5.997-5.614,9.818-4.014c3.819,1.604,5.616,5.999,4.013,9.818L65.091,97.177     C63.886,100.048,61.102,101.777,58.172,101.777z"/>
			<path style="fill:#77BC1F;" d="M47.505,201.009c-2.513,0-4.968-1.262-6.386-3.557l-15.322-24.779     c-2.179-3.522-1.088-8.145,2.435-10.323c3.524-2.179,8.146-1.089,10.323,2.435l15.322,24.779     c2.179,3.522,1.088,8.145-2.435,10.323C50.213,200.647,48.851,201.009,47.505,201.009z"/>
			<path style="fill:#77BC1F;" d="M106.839,342.342c-1.757,0-3.521-0.613-4.945-1.863c-3.113-2.733-3.421-7.472-0.688-10.585     l22-25.062c2.732-3.112,7.471-3.421,10.584-0.688c3.113,2.733,3.421,7.472,0.689,10.585l-22,25.061     C110.996,341.479,108.923,342.342,106.839,342.342z"/>
			<path style="fill:#77BC1F;" d="M121.514,232.735c-2.833,0-5.545-1.614-6.813-4.354l-14.666-31.725     c-1.738-3.76-0.1-8.217,3.66-9.955c3.76-1.738,8.217-0.099,9.955,3.66l14.666,31.725c1.738,3.76,0.1,8.217-3.66,9.955     C123.637,232.511,122.567,232.735,121.514,232.735z"/>
		</g>
	</g>
	<g>
		<rect x="310.784" y="332.008" style="fill:#997668;" width="50.761" height="79.973"/>
		<rect x="310.784" y="332.008" style="opacity:0.2;fill:#222222;" width="25.38" height="79.973"/>
		<path style="opacity:0.3;fill:#222222;" d="M310.784,332.008v41.104c8.116,2.09,16.621,3.202,25.38,3.202    c8.76,0,17.264-1.112,25.381-3.202v-41.104H310.784z"/>
		<path style="fill:#218649;" d="M422.351,274.505c0-47.6-19.406-239.399-86.187-239.399c-66.781,0-86.187,191.8-86.187,239.399    c0,47.598,38.587,86.185,86.187,86.185S422.351,322.103,422.351,274.505z"/>
		<path style="opacity:0.2;fill:#222222;" d="M249.977,274.505c0,47.598,38.587,86.185,86.187,86.185V35.106    C269.382,35.106,249.977,226.906,249.977,274.505z"/>
		<g>
			<path style="fill:#77BC1F;" d="M322.539,129.703c-3.065,0-5.942-1.892-7.05-4.94L304.126,93.49     c-1.415-3.894,0.595-8.196,4.488-9.61c3.893-1.414,8.196,0.594,9.611,4.487l11.363,31.273c1.414,3.893-0.595,8.196-4.488,9.61     C324.254,129.557,323.39,129.703,322.539,129.703z"/>
			<path style="fill:#77BC1F;" d="M377.835,230.676c-1.362,0-2.742-0.371-3.981-1.149c-3.508-2.202-4.566-6.832-2.363-10.34     l18-28.667c2.202-3.507,6.831-4.566,10.34-2.363c3.508,2.202,4.566,6.832,2.363,10.34l-18,28.667     C382.77,229.432,380.33,230.676,377.835,230.676z"/>
			<path style="fill:#77BC1F;" d="M357.182,162.413c-2.27,0-4.514-1.026-5.988-2.977c-2.498-3.305-1.845-8.008,1.459-10.506     l25.333-19.152c3.305-2.498,8.007-1.844,10.505,1.459c2.498,3.305,1.845,8.008-1.46,10.506l-25.333,19.152     C360.345,161.918,358.757,162.413,357.182,162.413z"/>
			<path style="fill:#77BC1F;" d="M316.853,224.123c-1.007,0-2.03-0.204-3.012-0.635c-3.793-1.665-5.517-6.09-3.852-9.883     l13.652-31.09c1.665-3.793,6.089-5.517,9.883-3.852c3.793,1.665,5.517,6.09,3.852,9.883l-13.652,31.09     C322.49,222.448,319.738,224.123,316.853,224.123z"/>
			<path style="fill:#77BC1F;" d="M388.849,325.653c-2.662,0-5.24-1.42-6.599-3.924l-17-31.33     c-1.975-3.641-0.626-8.193,3.015-10.169c3.641-1.978,8.194-0.626,10.17,3.015l17,31.33c1.975,3.641,0.625,8.193-3.015,10.169     C391.283,325.361,390.057,325.653,388.849,325.653z"/>
			<path style="fill:#77BC1F;" d="M311.78,336.342c-1.721,0-3.451-0.589-4.863-1.793c-3.152-2.688-3.528-7.421-0.841-10.573     l16.058-18.833c2.688-3.151,7.422-3.528,10.573-0.841c3.152,2.688,3.528,7.421,0.841,10.573l-16.058,18.833     C316.007,335.448,313.9,336.342,311.78,336.342z"/>
		</g>
		<path style="opacity:0.2;fill:#222222;" d="M303.124,121.236c-3.888-17.696-8.204-33.611-12.912-47.651    c-30.258,58.545-40.236,166.794-40.236,200.921c0,30.83,16.201,57.864,40.542,73.096c19.117-18.52,31.02-44.442,31.02-73.096    C321.539,251.846,317.039,184.57,303.124,121.236z"/>
	</g>
	<g>
		<rect x="194.349" y="332.008" style="fill:#997668;" width="50.761" height="79.973"/>
		<rect x="194.349" y="332.008" style="opacity:0.2;fill:#222222;" width="25.38" height="79.973"/>
		<path style="opacity:0.3;fill:#222222;" d="M194.349,332.008v41.104c8.116,2.09,16.621,3.202,25.38,3.202    c8.76,0,17.265-1.112,25.381-3.202v-41.104H194.349z"/>
		<path style="fill:#77BC1F;" d="M305.915,274.505c0-47.6-19.406-264.136-86.186-264.136c-66.781,0-86.187,216.536-86.187,264.136    c0,47.598,38.587,86.185,86.187,86.185C267.328,360.691,305.915,322.103,305.915,274.505z"/>
		<path style="opacity:0.2;fill:#218649;" d="M219.729,10.37c-66.781,0-86.187,216.536-86.187,264.136    c0,47.598,38.587,86.185,86.187,86.185V10.37z"/>
		<path style="fill:#218649;" d="M175.145,142.26c-1.716,0-3.44-0.585-4.851-1.782c-3.158-2.681-3.544-7.414-0.863-10.571    l24.863-29.286c2.682-3.158,7.413-3.544,10.571-0.864c3.158,2.681,3.545,7.414,0.863,10.571l-24.863,29.286    C179.382,141.362,177.27,142.26,175.145,142.26z"/>
		<path style="fill:#218649;" d="M249.982,83.884c-2.243,0-4.462-1.002-5.939-2.914l-19.801-25.621    c-2.533-3.277-1.93-7.987,1.348-10.521c3.277-2.531,7.988-1.929,10.52,1.349l19.801,25.621c2.533,3.277,1.93,7.987-1.348,10.521    C253.198,83.373,251.583,83.884,249.982,83.884z"/>
		<path style="fill:#218649;" d="M260.547,323.74c-1.999,0-3.992-0.794-5.468-2.365c-2.836-3.018-2.688-7.765,0.331-10.601    l24.212-22.745c3.02-2.837,7.766-2.688,10.602,0.331c2.836,3.018,2.688,7.765-0.331,10.601l-24.212,22.745    C264.233,323.066,262.388,323.74,260.547,323.74z"/>
		<path style="fill:#218649;" d="M195.386,329.668c-2.071,0-4.132-0.853-5.614-2.523l-21.975-24.776    c-2.749-3.099-2.465-7.839,0.634-10.588c3.098-2.748,7.839-2.465,10.587,0.635l21.975,24.776    c2.749,3.099,2.465,7.839-0.634,10.588C198.932,329.045,197.155,329.668,195.386,329.668z"/>
		<path style="fill:#218649;" d="M244.919,212.897c-1.622,0-3.256-0.523-4.63-1.604c-3.256-2.56-3.821-7.274-1.262-10.531    l25.37-32.278c2.559-3.258,7.275-3.821,10.531-1.262c3.256,2.559,3.821,7.274,1.262,10.531l-25.37,32.278    C249.341,211.915,247.141,212.897,244.919,212.897z"/>
		<path style="fill:#218649;" d="M189.594,240.871c-2.746,0-5.391-1.514-6.708-4.136l-16.827-33.496    c-1.859-3.701-0.366-8.209,3.335-10.068c3.7-1.858,8.209-0.367,10.068,3.336l16.827,33.496c1.859,3.701,0.366,8.209-3.335,10.068    C191.875,240.613,190.726,240.871,189.594,240.871z"/>
		<path style="fill:#218649;" d="M265.182,277.309c-2.656,0-5.228-1.412-6.59-3.907l-15.132-27.721    c-1.985-3.636-0.646-8.192,2.989-10.177c3.637-1.986,8.193-0.645,10.177,2.989l15.132,27.721    c1.985,3.636,0.646,8.192-2.989,10.177C267.628,277.014,266.396,277.309,265.182,277.309z"/>
		<path style="fill:#218649;" d="M239.072,144.935c-1.693,0-3.396-0.57-4.798-1.739c-3.182-2.651-3.611-7.381-0.959-10.563    l18.533-22.234c2.653-3.181,7.382-3.61,10.563-0.959c3.182,2.651,3.611,7.381,0.959,10.563l-18.533,22.234    C243.354,144.016,241.22,144.935,239.072,144.935z"/>
	</g>
</g>















</svg>